G04 #@! TF.GenerationSoftware,KiCad,Pcbnew,7.0.7*
G04 #@! TF.CreationDate,2024-03-10T05:18:15-05:00*
G04 #@! TF.ProjectId,O12imu,4f313269-6d75-42e6-9b69-6361645f7063,1*
G04 #@! TF.SameCoordinates,Original*
G04 #@! TF.FileFunction,Copper,L2,Bot*
G04 #@! TF.FilePolarity,Positive*
%FSLAX46Y46*%
G04 Gerber Fmt 4.6, Leading zero omitted, Abs format (unit mm)*
G04 Created by KiCad (PCBNEW 7.0.7) date 2024-03-10 05:18:15*
%MOMM*%
%LPD*%
G01*
G04 APERTURE LIST*
G04 Aperture macros list*
%AMRoundRect*
0 Rectangle with rounded corners*
0 $1 Rounding radius*
0 $2 $3 $4 $5 $6 $7 $8 $9 X,Y pos of 4 corners*
0 Add a 4 corners polygon primitive as box body*
4,1,4,$2,$3,$4,$5,$6,$7,$8,$9,$2,$3,0*
0 Add four circle primitives for the rounded corners*
1,1,$1+$1,$2,$3*
1,1,$1+$1,$4,$5*
1,1,$1+$1,$6,$7*
1,1,$1+$1,$8,$9*
0 Add four rect primitives between the rounded corners*
20,1,$1+$1,$2,$3,$4,$5,0*
20,1,$1+$1,$4,$5,$6,$7,0*
20,1,$1+$1,$6,$7,$8,$9,0*
20,1,$1+$1,$8,$9,$2,$3,0*%
G04 Aperture macros list end*
G04 #@! TA.AperFunction,SMDPad,CuDef*
%ADD10RoundRect,0.075000X-1.425000X-0.075000X1.425000X-0.075000X1.425000X0.075000X-1.425000X0.075000X0*%
G04 #@! TD*
G04 #@! TA.AperFunction,SMDPad,CuDef*
%ADD11RoundRect,0.150000X0.150000X0.600000X-0.150000X0.600000X-0.150000X-0.600000X0.150000X-0.600000X0*%
G04 #@! TD*
G04 #@! TA.AperFunction,ViaPad*
%ADD12C,0.550000*%
G04 #@! TD*
G04 #@! TA.AperFunction,Conductor*
%ADD13C,0.500000*%
G04 #@! TD*
G04 #@! TA.AperFunction,Conductor*
%ADD14C,0.200000*%
G04 #@! TD*
G04 #@! TA.AperFunction,Conductor*
%ADD15C,0.160000*%
G04 #@! TD*
G04 APERTURE END LIST*
D10*
X45800000Y-51250000D03*
X45800000Y-50750000D03*
X45800000Y-50250000D03*
X45800000Y-49750000D03*
X45800000Y-49250000D03*
X45800000Y-48750000D03*
D11*
X51600000Y-45050000D03*
X48300000Y-45050000D03*
X50500000Y-44950000D03*
X49400000Y-44950000D03*
D12*
X51608925Y-52446973D03*
X48778416Y-52307809D03*
X44505013Y-47745692D03*
X45650000Y-48400000D03*
X47886193Y-53763807D03*
X52749991Y-44610500D03*
X52655500Y-45797289D03*
X47565971Y-44426518D03*
X47750000Y-46350000D03*
X48601510Y-53023897D03*
X51150000Y-53000000D03*
X48154500Y-51350000D03*
X48100000Y-50059503D03*
X48100000Y-49350000D03*
X48365498Y-48085246D03*
X45700000Y-51834500D03*
X45264160Y-47714160D03*
X46334500Y-48150000D03*
X49500000Y-46200000D03*
X50450000Y-46850000D03*
X52300000Y-52250000D03*
X50850000Y-51400000D03*
X49750000Y-53750000D03*
X44500000Y-52250000D03*
X47750000Y-55500000D03*
X52250000Y-55500000D03*
X52950000Y-49300000D03*
X54000000Y-49400000D03*
X52100000Y-47114500D03*
X50000000Y-49610000D03*
X50250000Y-46150000D03*
X54000000Y-48200000D03*
X52322261Y-48324719D03*
X51626830Y-48184116D03*
X47800000Y-45100000D03*
X49450000Y-47250000D03*
D13*
X48625407Y-53000000D02*
X51150000Y-53000000D01*
D14*
X48601510Y-53023897D02*
X48625407Y-53000000D01*
X45650000Y-48400000D02*
X45799500Y-48250500D01*
X45799500Y-48250500D02*
X45799500Y-47928395D01*
X46112895Y-47615000D02*
X47404168Y-47615000D01*
X47404168Y-47615000D02*
X48624168Y-46395000D01*
X45799500Y-47928395D02*
X46112895Y-47615000D01*
X48624168Y-46395000D02*
X49305000Y-46395000D01*
X49305000Y-46395000D02*
X49500000Y-46200000D01*
D15*
X46334500Y-48150000D02*
X47350000Y-48150000D01*
X47350000Y-48150000D02*
X48765000Y-46735000D01*
X48765000Y-46735000D02*
X50335000Y-46735000D01*
X50335000Y-46735000D02*
X50450000Y-46850000D01*
X48154500Y-51350000D02*
X47650000Y-51350000D01*
X47650000Y-51350000D02*
X47540000Y-51240000D01*
X47540000Y-51240000D02*
X47540000Y-51150000D01*
X45264160Y-47714160D02*
X44713320Y-48265000D01*
X44050000Y-48554523D02*
X44050000Y-50650000D01*
X44713320Y-48265000D02*
X44339523Y-48265000D01*
X44339523Y-48265000D02*
X44050000Y-48554523D01*
X44050000Y-50650000D02*
X44150000Y-50750000D01*
X44150000Y-50750000D02*
X45800000Y-50750000D01*
D14*
X45650000Y-48400000D02*
X45361365Y-48750000D01*
X45361365Y-48750000D02*
X45800000Y-48750000D01*
X47886193Y-53763807D02*
X47886193Y-53739214D01*
D13*
X47886193Y-53739214D02*
X48601510Y-53023897D01*
D15*
X47750000Y-46350000D02*
X48073235Y-46055000D01*
X48795000Y-46055000D02*
X49400000Y-45450000D01*
X48073235Y-46055000D02*
X48795000Y-46055000D01*
X49400000Y-45450000D02*
X49400000Y-44950000D01*
X50250000Y-46150000D02*
X50601543Y-46150000D01*
X50601543Y-46150000D02*
X51600000Y-45151543D01*
X51600000Y-45151543D02*
X51600000Y-45050000D01*
X50500000Y-44950000D02*
X50500000Y-44400000D01*
X50840000Y-44060000D02*
X51911543Y-44060000D01*
X52140000Y-45811543D02*
X51550000Y-46401543D01*
X52140000Y-44288457D02*
X52140000Y-45811543D01*
X51911543Y-44060000D02*
X52140000Y-44288457D01*
X50500000Y-44400000D02*
X50840000Y-44060000D01*
X51550000Y-46401543D02*
X51550000Y-48107286D01*
X51550000Y-48107286D02*
X51626830Y-48184116D01*
X47540000Y-50544523D02*
X47540000Y-51150000D01*
X47540000Y-51150000D02*
X47540000Y-51510000D01*
X50000000Y-49610000D02*
X50000000Y-49350000D01*
X50000000Y-49350000D02*
X49850000Y-49200000D01*
X49850000Y-49200000D02*
X48250000Y-49200000D01*
X48250000Y-49200000D02*
X48100000Y-49350000D01*
X45800000Y-49250000D02*
X47245477Y-49250000D01*
X47245477Y-49250000D02*
X48365498Y-48129979D01*
X48365498Y-48129979D02*
X48365498Y-48085246D01*
X48100000Y-49350000D02*
X47886764Y-49213237D01*
X47350000Y-49750000D02*
X45800000Y-49750000D01*
X47886764Y-49213237D02*
X47350000Y-49750000D01*
X47215500Y-51834500D02*
X45700000Y-51834500D01*
X47540000Y-51510000D02*
X47215500Y-51834500D01*
X47245477Y-50250000D02*
X47540000Y-50544523D01*
X45800000Y-50250000D02*
X47245477Y-50250000D01*
X54000000Y-49300000D02*
X52950000Y-49300000D01*
X52100000Y-47114500D02*
X52814500Y-47114500D01*
X52814500Y-47114500D02*
X54000000Y-48300000D01*
X47800000Y-45100000D02*
X48300000Y-45100000D01*
G04 #@! TA.AperFunction,Conductor*
G36*
X54244253Y-43957965D02*
G01*
X54261832Y-43959117D01*
X54474288Y-43973046D01*
X54480688Y-43973888D01*
X54705191Y-44018548D01*
X54711446Y-44020224D01*
X54909485Y-44087452D01*
X54928200Y-44093805D01*
X54934182Y-44096283D01*
X55139478Y-44197526D01*
X55145075Y-44200758D01*
X55335405Y-44327933D01*
X55340525Y-44331862D01*
X55512626Y-44482790D01*
X55517206Y-44487370D01*
X55668135Y-44659472D01*
X55672067Y-44664597D01*
X55720410Y-44736946D01*
X55799238Y-44854919D01*
X55802476Y-44860526D01*
X55889522Y-45037034D01*
X55903713Y-45065810D01*
X55906194Y-45071799D01*
X55979774Y-45288550D01*
X55981451Y-45294811D01*
X56026108Y-45519293D01*
X56026954Y-45525719D01*
X56042035Y-45755742D01*
X56042141Y-45758981D01*
X56042141Y-54241013D01*
X56042035Y-54244253D01*
X56026954Y-54474280D01*
X56026108Y-54480706D01*
X55981451Y-54705188D01*
X55979774Y-54711449D01*
X55906194Y-54928200D01*
X55903713Y-54934189D01*
X55802479Y-55139467D01*
X55799238Y-55145080D01*
X55672072Y-55335396D01*
X55668126Y-55340539D01*
X55517209Y-55512626D01*
X55512626Y-55517209D01*
X55416228Y-55601748D01*
X55340534Y-55668129D01*
X55335396Y-55672072D01*
X55145080Y-55799238D01*
X55139467Y-55802479D01*
X54934189Y-55903713D01*
X54928200Y-55906194D01*
X54711449Y-55979774D01*
X54705188Y-55981451D01*
X54523857Y-56017523D01*
X54480703Y-56026108D01*
X54474280Y-56026954D01*
X54244254Y-56042035D01*
X54241014Y-56042141D01*
X45758986Y-56042141D01*
X45755746Y-56042035D01*
X45525719Y-56026954D01*
X45519298Y-56026108D01*
X45430081Y-56008360D01*
X45294811Y-55981451D01*
X45288550Y-55979774D01*
X45071799Y-55906194D01*
X45065810Y-55903713D01*
X44860526Y-55802476D01*
X44854919Y-55799238D01*
X44664597Y-55672067D01*
X44659472Y-55668135D01*
X44487370Y-55517206D01*
X44482790Y-55512626D01*
X44331862Y-55340525D01*
X44327933Y-55335405D01*
X44200758Y-55145075D01*
X44197526Y-55139478D01*
X44096283Y-54934182D01*
X44093805Y-54928200D01*
X44020225Y-54711449D01*
X44018548Y-54705188D01*
X43973888Y-54480688D01*
X43973046Y-54474288D01*
X43957965Y-54244252D01*
X43957912Y-54242641D01*
X44551716Y-54242641D01*
X44572244Y-54464177D01*
X44633130Y-54678169D01*
X44732301Y-54877330D01*
X44866378Y-55054877D01*
X45030797Y-55204765D01*
X45219958Y-55321888D01*
X45427419Y-55402259D01*
X45646116Y-55443141D01*
X45868602Y-55443141D01*
X46087299Y-55402259D01*
X46294760Y-55321888D01*
X46483921Y-55204765D01*
X46648340Y-55054877D01*
X46782417Y-54877330D01*
X46881588Y-54678169D01*
X46942474Y-54464177D01*
X46963002Y-54242641D01*
X53036998Y-54242641D01*
X53057526Y-54464177D01*
X53118412Y-54678169D01*
X53217583Y-54877330D01*
X53351660Y-55054877D01*
X53516079Y-55204765D01*
X53705240Y-55321888D01*
X53912701Y-55402259D01*
X54131398Y-55443141D01*
X54353884Y-55443141D01*
X54572581Y-55402259D01*
X54780042Y-55321888D01*
X54969203Y-55204765D01*
X55133622Y-55054877D01*
X55267699Y-54877330D01*
X55366870Y-54678169D01*
X55427756Y-54464177D01*
X55448284Y-54242641D01*
X55427756Y-54021105D01*
X55366870Y-53807113D01*
X55267699Y-53607952D01*
X55133622Y-53430405D01*
X54969203Y-53280517D01*
X54780042Y-53163394D01*
X54572581Y-53083023D01*
X54572580Y-53083022D01*
X54572578Y-53083022D01*
X54353884Y-53042141D01*
X54131398Y-53042141D01*
X53912703Y-53083022D01*
X53836438Y-53112567D01*
X53705240Y-53163394D01*
X53516079Y-53280517D01*
X53351660Y-53430405D01*
X53333457Y-53454510D01*
X53217584Y-53607950D01*
X53217579Y-53607959D01*
X53118413Y-53807110D01*
X53118412Y-53807113D01*
X53092225Y-53899152D01*
X53057526Y-54021105D01*
X53047727Y-54126860D01*
X53036998Y-54242641D01*
X46963002Y-54242641D01*
X46942474Y-54021105D01*
X46881588Y-53807113D01*
X46860025Y-53763809D01*
X47405803Y-53763809D01*
X47425260Y-53899144D01*
X47425262Y-53899152D01*
X47482061Y-54023522D01*
X47482062Y-54023523D01*
X47482063Y-54023525D01*
X47571604Y-54126862D01*
X47686632Y-54200785D01*
X47817826Y-54239307D01*
X47817827Y-54239307D01*
X47954559Y-54239307D01*
X47954560Y-54239307D01*
X48085754Y-54200785D01*
X48200782Y-54126862D01*
X48290323Y-54023525D01*
X48326057Y-53945277D01*
X48346100Y-53916409D01*
X48783014Y-53479494D01*
X48837529Y-53451719D01*
X48853016Y-53450500D01*
X50982256Y-53450500D01*
X51010147Y-53454509D01*
X51081633Y-53475500D01*
X51081634Y-53475500D01*
X51218366Y-53475500D01*
X51218367Y-53475500D01*
X51349561Y-53436978D01*
X51464589Y-53363055D01*
X51554130Y-53259718D01*
X51610931Y-53135342D01*
X51610932Y-53135337D01*
X51630390Y-53000002D01*
X51630390Y-52999997D01*
X51610932Y-52864662D01*
X51610930Y-52864654D01*
X51554131Y-52740284D01*
X51554130Y-52740283D01*
X51554130Y-52740282D01*
X51464589Y-52636945D01*
X51349561Y-52563022D01*
X51349558Y-52563021D01*
X51218368Y-52524500D01*
X51218367Y-52524500D01*
X51081633Y-52524500D01*
X51081631Y-52524500D01*
X51010148Y-52545490D01*
X50982256Y-52549500D01*
X48684628Y-52549500D01*
X48670536Y-52548492D01*
X48669878Y-52548397D01*
X48669877Y-52548397D01*
X48533143Y-52548397D01*
X48533141Y-52548397D01*
X48401951Y-52586918D01*
X48401949Y-52586918D01*
X48401949Y-52586919D01*
X48286921Y-52660842D01*
X48286920Y-52660842D01*
X48286920Y-52660843D01*
X48197377Y-52764182D01*
X48182318Y-52797156D01*
X48162270Y-52826031D01*
X47623756Y-53364546D01*
X47607277Y-53377825D01*
X47571605Y-53400750D01*
X47482061Y-53504091D01*
X47425262Y-53628461D01*
X47425260Y-53628469D01*
X47405803Y-53763804D01*
X47405803Y-53763809D01*
X46860025Y-53763809D01*
X46782417Y-53607952D01*
X46648340Y-53430405D01*
X46483921Y-53280517D01*
X46294760Y-53163394D01*
X46087299Y-53083023D01*
X46087298Y-53083022D01*
X46087296Y-53083022D01*
X45868602Y-53042141D01*
X45646116Y-53042141D01*
X45427421Y-53083022D01*
X45351156Y-53112567D01*
X45219958Y-53163394D01*
X45030797Y-53280517D01*
X44866378Y-53430405D01*
X44848175Y-53454510D01*
X44732302Y-53607950D01*
X44732297Y-53607959D01*
X44633131Y-53807110D01*
X44633130Y-53807113D01*
X44572244Y-54021105D01*
X44551716Y-54242641D01*
X43957912Y-54242641D01*
X43957859Y-54241013D01*
X43957859Y-51120900D01*
X43976766Y-51062709D01*
X44026266Y-51026745D01*
X44087452Y-51026745D01*
X44092623Y-51028586D01*
X44097058Y-51030303D01*
X44097565Y-51030500D01*
X44105973Y-51030500D01*
X44128640Y-51033129D01*
X44136821Y-51035054D01*
X44146358Y-51033723D01*
X44206602Y-51044407D01*
X44215032Y-51049453D01*
X44267505Y-51084515D01*
X44347867Y-51100500D01*
X47158222Y-51100499D01*
X47216413Y-51119406D01*
X47252377Y-51168906D01*
X47257116Y-51194925D01*
X47259447Y-51245324D01*
X47259500Y-51247611D01*
X47259500Y-51352804D01*
X47240593Y-51410995D01*
X47230504Y-51422807D01*
X47128309Y-51525003D01*
X47073792Y-51552781D01*
X47058305Y-51554000D01*
X46131335Y-51554000D01*
X46073144Y-51535093D01*
X46056516Y-51519831D01*
X46014591Y-51471447D01*
X46014590Y-51471446D01*
X46014589Y-51471445D01*
X45899561Y-51397522D01*
X45899558Y-51397521D01*
X45768368Y-51359000D01*
X45768367Y-51359000D01*
X45631633Y-51359000D01*
X45631631Y-51359000D01*
X45500441Y-51397521D01*
X45500439Y-51397521D01*
X45500439Y-51397522D01*
X45385411Y-51471445D01*
X45385410Y-51471445D01*
X45385410Y-51471446D01*
X45295868Y-51574784D01*
X45239069Y-51699154D01*
X45239067Y-51699162D01*
X45219610Y-51834497D01*
X45219610Y-51834502D01*
X45239067Y-51969837D01*
X45239069Y-51969845D01*
X45295868Y-52094215D01*
X45295869Y-52094216D01*
X45295870Y-52094218D01*
X45385411Y-52197555D01*
X45500439Y-52271478D01*
X45631633Y-52310000D01*
X45631634Y-52310000D01*
X45768366Y-52310000D01*
X45768367Y-52310000D01*
X45899561Y-52271478D01*
X46014589Y-52197555D01*
X46029709Y-52180104D01*
X46056516Y-52149169D01*
X46108911Y-52117573D01*
X46131335Y-52115000D01*
X47157425Y-52115000D01*
X47164272Y-52115475D01*
X47176073Y-52117121D01*
X47176076Y-52117122D01*
X47176078Y-52117121D01*
X47176079Y-52117122D01*
X47193784Y-52116303D01*
X47220834Y-52115052D01*
X47223111Y-52115000D01*
X47241489Y-52115000D01*
X47241493Y-52115000D01*
X47244523Y-52114433D01*
X47251325Y-52113642D01*
X47280833Y-52112279D01*
X47288524Y-52108882D01*
X47310319Y-52102133D01*
X47318584Y-52100589D01*
X47343693Y-52085040D01*
X47349744Y-52081851D01*
X47376766Y-52069921D01*
X47382709Y-52063976D01*
X47400597Y-52049808D01*
X47407745Y-52045383D01*
X47425543Y-52021812D01*
X47430040Y-52016646D01*
X47697277Y-51749409D01*
X47702456Y-51744902D01*
X47711960Y-51737724D01*
X47711967Y-51737721D01*
X47717073Y-51732119D01*
X47770248Y-51701852D01*
X47831058Y-51708621D01*
X47843754Y-51715524D01*
X47954939Y-51786978D01*
X48086133Y-51825500D01*
X48086134Y-51825500D01*
X48222866Y-51825500D01*
X48222867Y-51825500D01*
X48354061Y-51786978D01*
X48469089Y-51713055D01*
X48558630Y-51609718D01*
X48615431Y-51485342D01*
X48624422Y-51422807D01*
X48634890Y-51350002D01*
X48634890Y-51349997D01*
X48615432Y-51214662D01*
X48615430Y-51214654D01*
X48558631Y-51090284D01*
X48558630Y-51090283D01*
X48558630Y-51090282D01*
X48469089Y-50986945D01*
X48354061Y-50913022D01*
X48354058Y-50913021D01*
X48222868Y-50874500D01*
X48222867Y-50874500D01*
X48086133Y-50874500D01*
X48086131Y-50874500D01*
X48003802Y-50898674D01*
X47954939Y-50913022D01*
X47954938Y-50913022D01*
X47948146Y-50915017D01*
X47947250Y-50911965D01*
X47899803Y-50917392D01*
X47846538Y-50887285D01*
X47821141Y-50831619D01*
X47820500Y-50820371D01*
X47820500Y-50602597D01*
X47820975Y-50595749D01*
X47822622Y-50583945D01*
X47820553Y-50539196D01*
X47820500Y-50536910D01*
X47820500Y-50518533D01*
X47820500Y-50518530D01*
X47819931Y-50515488D01*
X47819142Y-50508691D01*
X47817779Y-50479190D01*
X47814382Y-50471497D01*
X47807633Y-50449701D01*
X47806089Y-50441439D01*
X47790540Y-50416328D01*
X47787345Y-50410263D01*
X47781677Y-50397427D01*
X47775420Y-50383256D01*
X47769474Y-50377310D01*
X47755307Y-50359423D01*
X47750884Y-50352280D01*
X47750883Y-50352278D01*
X47744371Y-50347360D01*
X47727321Y-50334484D01*
X47722144Y-50329979D01*
X47514428Y-50122264D01*
X47486651Y-50067747D01*
X47496222Y-50007315D01*
X47514436Y-49982250D01*
X47517224Y-49979461D01*
X47535097Y-49965308D01*
X47542245Y-49960883D01*
X47560045Y-49937309D01*
X47564535Y-49932150D01*
X47727917Y-49768769D01*
X47782432Y-49740993D01*
X47842864Y-49750564D01*
X47851427Y-49755480D01*
X47900439Y-49786978D01*
X48031633Y-49825500D01*
X48031634Y-49825500D01*
X48168366Y-49825500D01*
X48168367Y-49825500D01*
X48299561Y-49786978D01*
X48414589Y-49713055D01*
X48504130Y-49609718D01*
X48536712Y-49538371D01*
X48578083Y-49493296D01*
X48626765Y-49480500D01*
X49001000Y-49480500D01*
X49059191Y-49499407D01*
X49095155Y-49548907D01*
X49100000Y-49579499D01*
X49100000Y-50650000D01*
X49100001Y-50650000D01*
X50899999Y-50650000D01*
X50900000Y-50650000D01*
X50900000Y-49350000D01*
X50899999Y-49350000D01*
X50449098Y-49350000D01*
X50390907Y-49331093D01*
X50374280Y-49315833D01*
X50360563Y-49300002D01*
X52469610Y-49300002D01*
X52489067Y-49435337D01*
X52489069Y-49435345D01*
X52545868Y-49559715D01*
X52545869Y-49559716D01*
X52545870Y-49559718D01*
X52635411Y-49663055D01*
X52750439Y-49736978D01*
X52881633Y-49775500D01*
X52881634Y-49775500D01*
X53018366Y-49775500D01*
X53018367Y-49775500D01*
X53149561Y-49736978D01*
X53264589Y-49663055D01*
X53285975Y-49638374D01*
X53306516Y-49614669D01*
X53358911Y-49583073D01*
X53381335Y-49580500D01*
X53496069Y-49580500D01*
X53554260Y-49599407D01*
X53586121Y-49638372D01*
X53595870Y-49659718D01*
X53685411Y-49763055D01*
X53800439Y-49836978D01*
X53931633Y-49875500D01*
X53931634Y-49875500D01*
X54068366Y-49875500D01*
X54068367Y-49875500D01*
X54199561Y-49836978D01*
X54314589Y-49763055D01*
X54404130Y-49659718D01*
X54454736Y-49548907D01*
X54460930Y-49535345D01*
X54460932Y-49535337D01*
X54480390Y-49400002D01*
X54480390Y-49399997D01*
X54460932Y-49264662D01*
X54460930Y-49264654D01*
X54404131Y-49140284D01*
X54404130Y-49140283D01*
X54404130Y-49140282D01*
X54314589Y-49036945D01*
X54199561Y-48963022D01*
X54199558Y-48963021D01*
X54068368Y-48924500D01*
X54068367Y-48924500D01*
X53931633Y-48924500D01*
X53931631Y-48924500D01*
X53800439Y-48963022D01*
X53737009Y-49003785D01*
X53683487Y-49019500D01*
X53381335Y-49019500D01*
X53323144Y-49000593D01*
X53306516Y-48985331D01*
X53264591Y-48936947D01*
X53264590Y-48936946D01*
X53264589Y-48936945D01*
X53149561Y-48863022D01*
X53149558Y-48863021D01*
X53018368Y-48824500D01*
X53018367Y-48824500D01*
X52881633Y-48824500D01*
X52881631Y-48824500D01*
X52750441Y-48863021D01*
X52750439Y-48863021D01*
X52750439Y-48863022D01*
X52635411Y-48936945D01*
X52635410Y-48936945D01*
X52635410Y-48936946D01*
X52545868Y-49040284D01*
X52489069Y-49164654D01*
X52489067Y-49164662D01*
X52469610Y-49299997D01*
X52469610Y-49300002D01*
X50360563Y-49300002D01*
X50314589Y-49246945D01*
X50261234Y-49212656D01*
X50242580Y-49194544D01*
X50241906Y-49195219D01*
X50229473Y-49182785D01*
X50215309Y-49164903D01*
X50210884Y-49157756D01*
X50210880Y-49157753D01*
X50187321Y-49139961D01*
X50182144Y-49135456D01*
X50089403Y-49042715D01*
X50084896Y-49037536D01*
X50077719Y-49028030D01*
X50044614Y-48997852D01*
X50042962Y-48996274D01*
X50029964Y-48983276D01*
X50029956Y-48983270D01*
X50027411Y-48981526D01*
X50022040Y-48977271D01*
X50000223Y-48957383D01*
X50000218Y-48957380D01*
X49992378Y-48954343D01*
X49972197Y-48943705D01*
X49965263Y-48938955D01*
X49965262Y-48938954D01*
X49947451Y-48934765D01*
X49936513Y-48932193D01*
X49929966Y-48930165D01*
X49902439Y-48919501D01*
X49902436Y-48919500D01*
X49902435Y-48919500D01*
X49902434Y-48919500D01*
X49894031Y-48919500D01*
X49871363Y-48916870D01*
X49863179Y-48914945D01*
X49833930Y-48919025D01*
X49827084Y-48919500D01*
X48335282Y-48919500D01*
X48306853Y-48913317D01*
X48306354Y-48915017D01*
X48299562Y-48913022D01*
X48299561Y-48913022D01*
X48211965Y-48887301D01*
X48161460Y-48852766D01*
X48140898Y-48795139D01*
X48158136Y-48736432D01*
X48169855Y-48722308D01*
X48216664Y-48675500D01*
X48302421Y-48589742D01*
X48356938Y-48561965D01*
X48372425Y-48560746D01*
X48433864Y-48560746D01*
X48433865Y-48560746D01*
X48565059Y-48522224D01*
X48680087Y-48448301D01*
X48769628Y-48344964D01*
X48812882Y-48250251D01*
X48826428Y-48220591D01*
X48826430Y-48220583D01*
X48845888Y-48085248D01*
X48845888Y-48085243D01*
X48826430Y-47949908D01*
X48826428Y-47949900D01*
X48769629Y-47825530D01*
X48769628Y-47825529D01*
X48769628Y-47825528D01*
X48680087Y-47722191D01*
X48565059Y-47648268D01*
X48565055Y-47648266D01*
X48565054Y-47648266D01*
X48480385Y-47623404D01*
X48429879Y-47588868D01*
X48409318Y-47531241D01*
X48426557Y-47472534D01*
X48438275Y-47458411D01*
X48852192Y-47044496D01*
X48906708Y-47016719D01*
X48922195Y-47015500D01*
X49939219Y-47015500D01*
X49997410Y-47034407D01*
X50029271Y-47073371D01*
X50045870Y-47109718D01*
X50135411Y-47213055D01*
X50250439Y-47286978D01*
X50381633Y-47325500D01*
X50381634Y-47325500D01*
X50518366Y-47325500D01*
X50518367Y-47325500D01*
X50649561Y-47286978D01*
X50764589Y-47213055D01*
X50854130Y-47109718D01*
X50910931Y-46985342D01*
X50914108Y-46963245D01*
X50930390Y-46850002D01*
X50930390Y-46849997D01*
X50910932Y-46714662D01*
X50910930Y-46714654D01*
X50854131Y-46590283D01*
X50854130Y-46590281D01*
X50779665Y-46504344D01*
X50755847Y-46447985D01*
X50769706Y-46388389D01*
X50787793Y-46366347D01*
X50793781Y-46360887D01*
X50793788Y-46360883D01*
X50811586Y-46337312D01*
X50816083Y-46332146D01*
X50990707Y-46157522D01*
X51170374Y-45977854D01*
X51224889Y-45950079D01*
X51283856Y-45958919D01*
X51348607Y-45990573D01*
X51355949Y-45992842D01*
X51354931Y-45996136D01*
X51396459Y-46016652D01*
X51424911Y-46070820D01*
X51416089Y-46131366D01*
X51397333Y-46157522D01*
X51392722Y-46162132D01*
X51387548Y-46166635D01*
X51378033Y-46173822D01*
X51347841Y-46206938D01*
X51346266Y-46208588D01*
X51333277Y-46221578D01*
X51333270Y-46221586D01*
X51331519Y-46224141D01*
X51327270Y-46229504D01*
X51307384Y-46251319D01*
X51307381Y-46251323D01*
X51304345Y-46259161D01*
X51293708Y-46279341D01*
X51288954Y-46286279D01*
X51282194Y-46315023D01*
X51280165Y-46321579D01*
X51269500Y-46349107D01*
X51269500Y-46357512D01*
X51266870Y-46380178D01*
X51264945Y-46388364D01*
X51265458Y-46392040D01*
X51269025Y-46417612D01*
X51269500Y-46424458D01*
X51269500Y-47833462D01*
X51250593Y-47891653D01*
X51245320Y-47898292D01*
X51222699Y-47924397D01*
X51222698Y-47924399D01*
X51165899Y-48048770D01*
X51165897Y-48048778D01*
X51146440Y-48184113D01*
X51146440Y-48184118D01*
X51165897Y-48319453D01*
X51165899Y-48319461D01*
X51222698Y-48443831D01*
X51222699Y-48443832D01*
X51222700Y-48443834D01*
X51312241Y-48547171D01*
X51427269Y-48621094D01*
X51558463Y-48659616D01*
X51558464Y-48659616D01*
X51695196Y-48659616D01*
X51695197Y-48659616D01*
X51826391Y-48621094D01*
X51941419Y-48547171D01*
X52030960Y-48443834D01*
X52080507Y-48335342D01*
X52087760Y-48319461D01*
X52087762Y-48319453D01*
X52107220Y-48184118D01*
X52107220Y-48184113D01*
X52087762Y-48048778D01*
X52087760Y-48048770D01*
X52030961Y-47924400D01*
X52030960Y-47924399D01*
X52030960Y-47924398D01*
X51941419Y-47821061D01*
X51941418Y-47821060D01*
X51941417Y-47821059D01*
X51875977Y-47779004D01*
X51837246Y-47731638D01*
X51830500Y-47695720D01*
X51830500Y-47663190D01*
X51849407Y-47604999D01*
X51898907Y-47569035D01*
X51957392Y-47568201D01*
X51960233Y-47569035D01*
X52031627Y-47589999D01*
X52031632Y-47589999D01*
X52031633Y-47590000D01*
X52031634Y-47590000D01*
X52168366Y-47590000D01*
X52168367Y-47590000D01*
X52299561Y-47551478D01*
X52414589Y-47477555D01*
X52434613Y-47454446D01*
X52456516Y-47429169D01*
X52508911Y-47397573D01*
X52531335Y-47395000D01*
X52657305Y-47395000D01*
X52715496Y-47413907D01*
X52727309Y-47423996D01*
X53499047Y-48195734D01*
X53526824Y-48250251D01*
X53527035Y-48251649D01*
X53539068Y-48335341D01*
X53588616Y-48443834D01*
X53595870Y-48459718D01*
X53685411Y-48563055D01*
X53800439Y-48636978D01*
X53931633Y-48675500D01*
X53931634Y-48675500D01*
X54068366Y-48675500D01*
X54068367Y-48675500D01*
X54199561Y-48636978D01*
X54314589Y-48563055D01*
X54404130Y-48459718D01*
X54460931Y-48335342D01*
X54460932Y-48335337D01*
X54480390Y-48200002D01*
X54480390Y-48199997D01*
X54460932Y-48064662D01*
X54460930Y-48064654D01*
X54404131Y-47940284D01*
X54404130Y-47940283D01*
X54404130Y-47940282D01*
X54314589Y-47836945D01*
X54199561Y-47763022D01*
X54199558Y-47763021D01*
X54068368Y-47724500D01*
X54068367Y-47724500D01*
X53931633Y-47724500D01*
X53931629Y-47724500D01*
X53902615Y-47733020D01*
X53841455Y-47731273D01*
X53804720Y-47708034D01*
X53053903Y-46957215D01*
X53049396Y-46952036D01*
X53042219Y-46942530D01*
X53009114Y-46912352D01*
X53007462Y-46910774D01*
X52994464Y-46897776D01*
X52994456Y-46897770D01*
X52991911Y-46896026D01*
X52986540Y-46891771D01*
X52964723Y-46871883D01*
X52964718Y-46871880D01*
X52956878Y-46868843D01*
X52936697Y-46858205D01*
X52929763Y-46853455D01*
X52929762Y-46853454D01*
X52911951Y-46849265D01*
X52901013Y-46846693D01*
X52894466Y-46844665D01*
X52866939Y-46834001D01*
X52866936Y-46834000D01*
X52866935Y-46834000D01*
X52866934Y-46834000D01*
X52858531Y-46834000D01*
X52835863Y-46831370D01*
X52827679Y-46829445D01*
X52798430Y-46833525D01*
X52791584Y-46834000D01*
X52531335Y-46834000D01*
X52473144Y-46815093D01*
X52456516Y-46799831D01*
X52414591Y-46751447D01*
X52414590Y-46751446D01*
X52414589Y-46751445D01*
X52299561Y-46677522D01*
X52242608Y-46660799D01*
X52168368Y-46639000D01*
X52168367Y-46639000D01*
X52031633Y-46639000D01*
X52031629Y-46639000D01*
X51957391Y-46660799D01*
X51896231Y-46659052D01*
X51847778Y-46621689D01*
X51830500Y-46565809D01*
X51830500Y-46558736D01*
X51849407Y-46500545D01*
X51859490Y-46488739D01*
X52297280Y-46050948D01*
X52302452Y-46046448D01*
X52311961Y-46039266D01*
X52311967Y-46039264D01*
X52342183Y-46006117D01*
X52343716Y-46004512D01*
X52356723Y-45991507D01*
X52358471Y-45988953D01*
X52362715Y-45983594D01*
X52382617Y-45961765D01*
X52385651Y-45953931D01*
X52396295Y-45933738D01*
X52401044Y-45926806D01*
X52401043Y-45926806D01*
X52401045Y-45926805D01*
X52407805Y-45898059D01*
X52409834Y-45891508D01*
X52416423Y-45874500D01*
X52420500Y-45863978D01*
X52420500Y-45855574D01*
X52423130Y-45832905D01*
X52425055Y-45824721D01*
X52423712Y-45815093D01*
X52420973Y-45795459D01*
X52420499Y-45788640D01*
X52420499Y-45757359D01*
X53036998Y-45757359D01*
X53057526Y-45978895D01*
X53118412Y-46192887D01*
X53217583Y-46392048D01*
X53351660Y-46569595D01*
X53516079Y-46719483D01*
X53705240Y-46836606D01*
X53912701Y-46916977D01*
X54131398Y-46957859D01*
X54353884Y-46957859D01*
X54572581Y-46916977D01*
X54780042Y-46836606D01*
X54969203Y-46719483D01*
X55133622Y-46569595D01*
X55267699Y-46392048D01*
X55366870Y-46192887D01*
X55427756Y-45978895D01*
X55448284Y-45757359D01*
X55427756Y-45535823D01*
X55366870Y-45321831D01*
X55267699Y-45122670D01*
X55133622Y-44945123D01*
X54969203Y-44795235D01*
X54780042Y-44678112D01*
X54572581Y-44597741D01*
X54572580Y-44597740D01*
X54572578Y-44597740D01*
X54353884Y-44556859D01*
X54131398Y-44556859D01*
X53912703Y-44597740D01*
X53863287Y-44616884D01*
X53705240Y-44678112D01*
X53516078Y-44795235D01*
X53516079Y-44795235D01*
X53351661Y-44945122D01*
X53217584Y-45122668D01*
X53217579Y-45122677D01*
X53118413Y-45321828D01*
X53057526Y-45535823D01*
X53039092Y-45734766D01*
X53036998Y-45757359D01*
X52420499Y-45757359D01*
X52420499Y-44346533D01*
X52420975Y-44339683D01*
X52422622Y-44327879D01*
X52420553Y-44283130D01*
X52420500Y-44280843D01*
X52420500Y-44262467D01*
X52420500Y-44262464D01*
X52419931Y-44259422D01*
X52419142Y-44252625D01*
X52417779Y-44223124D01*
X52414382Y-44215431D01*
X52407633Y-44193634D01*
X52406089Y-44185373D01*
X52390539Y-44160259D01*
X52387349Y-44154208D01*
X52375421Y-44127191D01*
X52375090Y-44126860D01*
X52374788Y-44126267D01*
X52370237Y-44119623D01*
X52371101Y-44119030D01*
X52347315Y-44072346D01*
X52356886Y-44011914D01*
X52400151Y-43968649D01*
X52445096Y-43957859D01*
X54241014Y-43957859D01*
X54244253Y-43957965D01*
G37*
G04 #@! TD.AperFunction*
G04 #@! TA.AperFunction,Conductor*
G36*
X47988915Y-43976766D02*
G01*
X48024879Y-44026266D01*
X48024879Y-44087452D01*
X47988915Y-44136952D01*
X47974208Y-44145798D01*
X47944611Y-44160267D01*
X47943517Y-44160802D01*
X47860801Y-44243518D01*
X47809427Y-44348604D01*
X47799500Y-44416743D01*
X47799500Y-44530461D01*
X47780593Y-44588652D01*
X47731093Y-44624616D01*
X47728392Y-44625451D01*
X47600441Y-44663021D01*
X47600439Y-44663021D01*
X47600439Y-44663022D01*
X47485411Y-44736945D01*
X47485410Y-44736945D01*
X47485410Y-44736946D01*
X47395868Y-44840284D01*
X47339069Y-44964654D01*
X47339067Y-44964662D01*
X47319610Y-45099997D01*
X47319610Y-45100002D01*
X47339067Y-45235337D01*
X47339069Y-45235345D01*
X47395868Y-45359715D01*
X47395869Y-45359716D01*
X47395870Y-45359718D01*
X47485411Y-45463055D01*
X47600439Y-45536978D01*
X47728392Y-45574548D01*
X47778898Y-45609084D01*
X47799460Y-45666711D01*
X47799500Y-45669538D01*
X47799500Y-45683260D01*
X47809427Y-45751393D01*
X47809427Y-45751394D01*
X47810536Y-45759001D01*
X47807658Y-45759420D01*
X47806952Y-45807472D01*
X47770266Y-45856438D01*
X47713257Y-45874500D01*
X47681631Y-45874500D01*
X47550441Y-45913021D01*
X47550439Y-45913021D01*
X47550439Y-45913022D01*
X47435411Y-45986945D01*
X47435410Y-45986945D01*
X47435410Y-45986946D01*
X47345868Y-46090284D01*
X47289069Y-46214654D01*
X47289067Y-46214662D01*
X47269610Y-46349997D01*
X47269610Y-46350002D01*
X47289067Y-46485337D01*
X47289069Y-46485345D01*
X47345868Y-46609715D01*
X47345869Y-46609716D01*
X47345870Y-46609718D01*
X47435411Y-46713055D01*
X47550439Y-46786978D01*
X47588836Y-46798252D01*
X47639344Y-46832787D01*
X47659906Y-46890414D01*
X47642668Y-46949121D01*
X47630950Y-46963245D01*
X47308693Y-47285503D01*
X47254176Y-47313281D01*
X47238689Y-47314500D01*
X46178059Y-47314500D01*
X46164383Y-47312267D01*
X46164212Y-47313494D01*
X46155128Y-47312226D01*
X46114781Y-47314092D01*
X46107101Y-47314447D01*
X46104825Y-47314500D01*
X46085048Y-47314500D01*
X46081553Y-47315153D01*
X46074740Y-47315943D01*
X46042904Y-47317414D01*
X46033900Y-47321389D01*
X46012121Y-47328132D01*
X46002463Y-47329937D01*
X46002461Y-47329938D01*
X45975366Y-47346714D01*
X45969298Y-47349913D01*
X45940129Y-47362793D01*
X45933175Y-47369747D01*
X45915298Y-47383907D01*
X45906943Y-47389080D01*
X45887734Y-47414515D01*
X45883230Y-47419691D01*
X45825606Y-47477316D01*
X45771090Y-47505094D01*
X45710658Y-47495523D01*
X45674196Y-47459062D01*
X45672118Y-47460398D01*
X45668292Y-47454446D01*
X45668291Y-47454445D01*
X45668290Y-47454442D01*
X45578749Y-47351105D01*
X45463721Y-47277182D01*
X45463718Y-47277181D01*
X45332528Y-47238660D01*
X45332527Y-47238660D01*
X45195793Y-47238660D01*
X45195791Y-47238660D01*
X45064601Y-47277181D01*
X45064599Y-47277181D01*
X45064599Y-47277182D01*
X44949571Y-47351105D01*
X44949570Y-47351105D01*
X44949570Y-47351106D01*
X44860028Y-47454444D01*
X44803229Y-47578814D01*
X44803227Y-47578822D01*
X44783770Y-47714157D01*
X44783770Y-47714159D01*
X44787239Y-47738292D01*
X44776803Y-47798581D01*
X44759250Y-47822381D01*
X44626130Y-47955503D01*
X44571614Y-47983281D01*
X44556126Y-47984500D01*
X44397598Y-47984500D01*
X44390751Y-47984025D01*
X44378943Y-47982377D01*
X44340983Y-47984133D01*
X44334188Y-47984447D01*
X44331912Y-47984500D01*
X44313530Y-47984500D01*
X44313527Y-47984500D01*
X44313518Y-47984501D01*
X44310478Y-47985069D01*
X44303678Y-47985857D01*
X44274188Y-47987221D01*
X44266497Y-47990617D01*
X44244709Y-47997364D01*
X44236442Y-47998909D01*
X44236437Y-47998911D01*
X44211331Y-48014455D01*
X44205264Y-48017653D01*
X44178256Y-48029579D01*
X44178254Y-48029580D01*
X44172306Y-48035528D01*
X44154431Y-48049686D01*
X44147279Y-48054115D01*
X44147278Y-48054115D01*
X44135861Y-48069234D01*
X44085704Y-48104276D01*
X44024529Y-48103143D01*
X43975703Y-48066269D01*
X43957859Y-48009571D01*
X43957859Y-45758982D01*
X43957912Y-45757359D01*
X44551716Y-45757359D01*
X44572244Y-45978895D01*
X44633130Y-46192887D01*
X44732301Y-46392048D01*
X44866378Y-46569595D01*
X45030797Y-46719483D01*
X45219958Y-46836606D01*
X45427419Y-46916977D01*
X45646116Y-46957859D01*
X45868602Y-46957859D01*
X46087299Y-46916977D01*
X46294760Y-46836606D01*
X46483921Y-46719483D01*
X46648340Y-46569595D01*
X46782417Y-46392048D01*
X46881588Y-46192887D01*
X46942474Y-45978895D01*
X46963002Y-45757359D01*
X46942474Y-45535823D01*
X46881588Y-45321831D01*
X46782417Y-45122670D01*
X46648340Y-44945123D01*
X46483921Y-44795235D01*
X46294760Y-44678112D01*
X46087299Y-44597741D01*
X46087298Y-44597740D01*
X46087296Y-44597740D01*
X45868602Y-44556859D01*
X45646116Y-44556859D01*
X45427421Y-44597740D01*
X45378005Y-44616884D01*
X45219958Y-44678112D01*
X45030796Y-44795234D01*
X45030797Y-44795235D01*
X44866379Y-44945122D01*
X44732302Y-45122668D01*
X44732297Y-45122677D01*
X44633131Y-45321828D01*
X44572244Y-45535823D01*
X44553810Y-45734766D01*
X44551716Y-45757359D01*
X43957912Y-45757359D01*
X43957965Y-45755743D01*
X43962717Y-45683256D01*
X43973046Y-45525709D01*
X43973888Y-45519313D01*
X44018549Y-45294804D01*
X44020223Y-45288557D01*
X44093807Y-45071792D01*
X44096280Y-45065823D01*
X44197529Y-44860515D01*
X44200753Y-44854931D01*
X44327939Y-44664587D01*
X44331856Y-44659481D01*
X44482800Y-44487362D01*
X44487362Y-44482800D01*
X44659481Y-44331856D01*
X44664587Y-44327939D01*
X44854931Y-44200753D01*
X44860515Y-44197529D01*
X45065823Y-44096280D01*
X45071792Y-44093807D01*
X45288557Y-44020223D01*
X45294804Y-44018549D01*
X45519313Y-43973888D01*
X45525709Y-43973046D01*
X45739668Y-43959019D01*
X45755747Y-43957965D01*
X45758986Y-43957859D01*
X47930724Y-43957859D01*
X47988915Y-43976766D01*
G37*
G04 #@! TD.AperFunction*
M02*
