M48
; DRILL file {KiCad 7.0.7} date 2024 March 10, Sunday 05:29:28
; FORMAT={-:-/ absolute / metric / decimal}
; #@! TF.CreationDate,2024-03-10T05:29:28-05:00
; #@! TF.GenerationSoftware,Kicad,Pcbnew,7.0.7
; #@! TF.FileFunction,Plated,1,2,PTH
FMAT,2
METRIC
; #@! TA.AperFunction,Plated,PTH,ViaDrill
T1C0.250
%
G90
G05
T1
X44.5Y-52.25
X44.505Y-47.746
X45.264Y-47.714
X45.65Y-48.4
X45.7Y-51.834
X46.334Y-48.15
X47.566Y-44.427
X47.75Y-46.35
X47.75Y-55.5
X47.8Y-45.1
X47.886Y-53.764
X48.1Y-49.35
X48.1Y-50.06
X48.154Y-51.35
X48.365Y-48.085
X48.602Y-53.024
X48.778Y-52.308
X49.45Y-47.25
X49.5Y-46.2
X49.75Y-53.75
X50.0Y-49.61
X50.25Y-46.15
X50.45Y-46.85
X50.85Y-51.4
X51.15Y-53.0
X51.609Y-52.447
X51.627Y-48.184
X52.1Y-47.114
X52.25Y-55.5
X52.3Y-52.25
X52.322Y-48.325
X52.655Y-45.797
X52.75Y-44.61
X52.95Y-49.3
X54.0Y-48.2
X54.0Y-49.4
T0
M30
