%TF.GenerationSoftware,KiCad,Pcbnew,7.0.7*%
%TF.CreationDate,2024-03-10T05:29:29-05:00*%
%TF.ProjectId,O12imu,4f313269-6d75-42e6-9b69-6361645f7063,1*%
%TF.SameCoordinates,Original*%
%TF.FileFunction,Drillmap*%
%TF.FilePolarity,Positive*%
%FSLAX45Y45*%
G04 Gerber Fmt 4.5, Leading zero omitted, Abs format (unit mm)*
G04 Created by KiCad (PCBNEW 7.0.7) date 2024-03-10 05:29:29*
%MOMM*%
%LPD*%
G01*
G04 APERTURE LIST*
%ADD10C,0.150000*%
%ADD11C,0.200000*%
%ADD12C,0.025000*%
G04 APERTURE END LIST*
D10*
X5624264Y-5424264D02*
X5624264Y-4575736D01*
X5524264Y-5424264D02*
G75*
G03*
X5524264Y-5424264I-100000J0D01*
G01*
X4375736Y-5424264D02*
G75*
G03*
X4575736Y-5624264I200004J4D01*
G01*
X5424264Y-5624264D02*
G75*
G03*
X5624264Y-5424264I-4J200004D01*
G01*
X5524264Y-4575736D02*
G75*
G03*
X5524264Y-4575736I-100000J0D01*
G01*
X4575736Y-4375736D02*
G75*
G03*
X4375736Y-4575736I4J-200004D01*
G01*
X4375736Y-4575736D02*
X4375736Y-5424264D01*
X4675736Y-5424264D02*
G75*
G03*
X4675736Y-5424264I-100000J0D01*
G01*
X5624264Y-4575736D02*
G75*
G03*
X5424264Y-4375736I-200004J-4D01*
G01*
X4575736Y-5624264D02*
X5424264Y-5624264D01*
X4675736Y-4575736D02*
G75*
G03*
X4675736Y-4575736I-100000J0D01*
G01*
X5424264Y-4375736D02*
X4575736Y-4375736D01*
D11*
D12*
X4437500Y-5212500D02*
X4462500Y-5237500D01*
X4462500Y-5212500D02*
X4437500Y-5237500D01*
X4438001Y-4762069D02*
X4463001Y-4787069D01*
X4463001Y-4762069D02*
X4438001Y-4787069D01*
X4513916Y-4758916D02*
X4538916Y-4783916D01*
X4538916Y-4758916D02*
X4513916Y-4783916D01*
X4552500Y-4827500D02*
X4577500Y-4852500D01*
X4577500Y-4827500D02*
X4552500Y-4852500D01*
X4557500Y-5170950D02*
X4582500Y-5195950D01*
X4582500Y-5170950D02*
X4557500Y-5195950D01*
X4620950Y-4802500D02*
X4645950Y-4827500D01*
X4645950Y-4802500D02*
X4620950Y-4827500D01*
X4744097Y-4430152D02*
X4769097Y-4455152D01*
X4769097Y-4430152D02*
X4744097Y-4455152D01*
X4762500Y-4622500D02*
X4787500Y-4647500D01*
X4787500Y-4622500D02*
X4762500Y-4647500D01*
X4762500Y-5537500D02*
X4787500Y-5562500D01*
X4787500Y-5537500D02*
X4762500Y-5562500D01*
X4767500Y-4497500D02*
X4792500Y-4522500D01*
X4792500Y-4497500D02*
X4767500Y-4522500D01*
X4776119Y-5363881D02*
X4801119Y-5388881D01*
X4801119Y-5363881D02*
X4776119Y-5388881D01*
X4797500Y-4922500D02*
X4822500Y-4947500D01*
X4822500Y-4922500D02*
X4797500Y-4947500D01*
X4797500Y-4993450D02*
X4822500Y-5018450D01*
X4822500Y-4993450D02*
X4797500Y-5018450D01*
X4802950Y-5122500D02*
X4827950Y-5147500D01*
X4827950Y-5122500D02*
X4802950Y-5147500D01*
X4824050Y-4796025D02*
X4849050Y-4821025D01*
X4849050Y-4796025D02*
X4824050Y-4821025D01*
X4847651Y-5289890D02*
X4872651Y-5314890D01*
X4872651Y-5289890D02*
X4847651Y-5314890D01*
X4865342Y-5218281D02*
X4890342Y-5243281D01*
X4890342Y-5218281D02*
X4865342Y-5243281D01*
X4932500Y-4712500D02*
X4957500Y-4737500D01*
X4957500Y-4712500D02*
X4932500Y-4737500D01*
X4937500Y-4607500D02*
X4962500Y-4632500D01*
X4962500Y-4607500D02*
X4937500Y-4632500D01*
X4962500Y-5362500D02*
X4987500Y-5387500D01*
X4987500Y-5362500D02*
X4962500Y-5387500D01*
X4987500Y-4948500D02*
X5012500Y-4973500D01*
X5012500Y-4948500D02*
X4987500Y-4973500D01*
X5012500Y-4602500D02*
X5037500Y-4627500D01*
X5037500Y-4602500D02*
X5012500Y-4627500D01*
X5032500Y-4672500D02*
X5057500Y-4697500D01*
X5057500Y-4672500D02*
X5032500Y-4697500D01*
X5072500Y-5127500D02*
X5097500Y-5152500D01*
X5097500Y-5127500D02*
X5072500Y-5152500D01*
X5102500Y-5287500D02*
X5127500Y-5312500D01*
X5127500Y-5287500D02*
X5102500Y-5312500D01*
X5148393Y-5232197D02*
X5173393Y-5257197D01*
X5173393Y-5232197D02*
X5148393Y-5257197D01*
X5150183Y-4805912D02*
X5175183Y-4830912D01*
X5175183Y-4805912D02*
X5150183Y-4830912D01*
X5197500Y-4698950D02*
X5222500Y-4723950D01*
X5222500Y-4698950D02*
X5197500Y-4723950D01*
X5212500Y-5537500D02*
X5237500Y-5562500D01*
X5237500Y-5537500D02*
X5212500Y-5562500D01*
X5217500Y-5212500D02*
X5242500Y-5237500D01*
X5242500Y-5212500D02*
X5217500Y-5237500D01*
X5219726Y-4819972D02*
X5244726Y-4844972D01*
X5244726Y-4819972D02*
X5219726Y-4844972D01*
X5253050Y-4567229D02*
X5278050Y-4592229D01*
X5278050Y-4567229D02*
X5253050Y-4592229D01*
X5262499Y-4448550D02*
X5287499Y-4473550D01*
X5287499Y-4448550D02*
X5262499Y-4473550D01*
X5282500Y-4917500D02*
X5307500Y-4942500D01*
X5307500Y-4917500D02*
X5282500Y-4942500D01*
X5387500Y-4807500D02*
X5412500Y-4832500D01*
X5412500Y-4807500D02*
X5387500Y-4832500D01*
X5387500Y-4927500D02*
X5412500Y-4952500D01*
X5412500Y-4927500D02*
X5387500Y-4952500D01*
D11*
X4629013Y-5943248D02*
X4629013Y-5743248D01*
X4629013Y-5743248D02*
X4676632Y-5743248D01*
X4676632Y-5743248D02*
X4705203Y-5752772D01*
X4705203Y-5752772D02*
X4724251Y-5771819D01*
X4724251Y-5771819D02*
X4733775Y-5790867D01*
X4733775Y-5790867D02*
X4743298Y-5828962D01*
X4743298Y-5828962D02*
X4743298Y-5857534D01*
X4743298Y-5857534D02*
X4733775Y-5895629D01*
X4733775Y-5895629D02*
X4724251Y-5914676D01*
X4724251Y-5914676D02*
X4705203Y-5933724D01*
X4705203Y-5933724D02*
X4676632Y-5943248D01*
X4676632Y-5943248D02*
X4629013Y-5943248D01*
X4829013Y-5943248D02*
X4829013Y-5809914D01*
X4829013Y-5848010D02*
X4838537Y-5828962D01*
X4838537Y-5828962D02*
X4848060Y-5819438D01*
X4848060Y-5819438D02*
X4867108Y-5809914D01*
X4867108Y-5809914D02*
X4886156Y-5809914D01*
X4952822Y-5943248D02*
X4952822Y-5809914D01*
X4952822Y-5743248D02*
X4943298Y-5752772D01*
X4943298Y-5752772D02*
X4952822Y-5762295D01*
X4952822Y-5762295D02*
X4962346Y-5752772D01*
X4962346Y-5752772D02*
X4952822Y-5743248D01*
X4952822Y-5743248D02*
X4952822Y-5762295D01*
X5076632Y-5943248D02*
X5057584Y-5933724D01*
X5057584Y-5933724D02*
X5048060Y-5914676D01*
X5048060Y-5914676D02*
X5048060Y-5743248D01*
X5181394Y-5943248D02*
X5162346Y-5933724D01*
X5162346Y-5933724D02*
X5152822Y-5914676D01*
X5152822Y-5914676D02*
X5152822Y-5743248D01*
X5409965Y-5943248D02*
X5409965Y-5743248D01*
X5409965Y-5743248D02*
X5476632Y-5886105D01*
X5476632Y-5886105D02*
X5543298Y-5743248D01*
X5543298Y-5743248D02*
X5543298Y-5943248D01*
X5724251Y-5943248D02*
X5724251Y-5838486D01*
X5724251Y-5838486D02*
X5714727Y-5819438D01*
X5714727Y-5819438D02*
X5695679Y-5809914D01*
X5695679Y-5809914D02*
X5657584Y-5809914D01*
X5657584Y-5809914D02*
X5638536Y-5819438D01*
X5724251Y-5933724D02*
X5705203Y-5943248D01*
X5705203Y-5943248D02*
X5657584Y-5943248D01*
X5657584Y-5943248D02*
X5638536Y-5933724D01*
X5638536Y-5933724D02*
X5629013Y-5914676D01*
X5629013Y-5914676D02*
X5629013Y-5895629D01*
X5629013Y-5895629D02*
X5638536Y-5876581D01*
X5638536Y-5876581D02*
X5657584Y-5867057D01*
X5657584Y-5867057D02*
X5705203Y-5867057D01*
X5705203Y-5867057D02*
X5724251Y-5857534D01*
X5819489Y-5809914D02*
X5819489Y-6009914D01*
X5819489Y-5819438D02*
X5838536Y-5809914D01*
X5838536Y-5809914D02*
X5876632Y-5809914D01*
X5876632Y-5809914D02*
X5895679Y-5819438D01*
X5895679Y-5819438D02*
X5905203Y-5828962D01*
X5905203Y-5828962D02*
X5914727Y-5848010D01*
X5914727Y-5848010D02*
X5914727Y-5905153D01*
X5914727Y-5905153D02*
X5905203Y-5924200D01*
X5905203Y-5924200D02*
X5895679Y-5933724D01*
X5895679Y-5933724D02*
X5876632Y-5943248D01*
X5876632Y-5943248D02*
X5838536Y-5943248D01*
X5838536Y-5943248D02*
X5819489Y-5933724D01*
X6000441Y-5924200D02*
X6009965Y-5933724D01*
X6009965Y-5933724D02*
X6000441Y-5943248D01*
X6000441Y-5943248D02*
X5990917Y-5933724D01*
X5990917Y-5933724D02*
X6000441Y-5924200D01*
X6000441Y-5924200D02*
X6000441Y-5943248D01*
X6000441Y-5819438D02*
X6009965Y-5828962D01*
X6009965Y-5828962D02*
X6000441Y-5838486D01*
X6000441Y-5838486D02*
X5990917Y-5828962D01*
X5990917Y-5828962D02*
X6000441Y-5819438D01*
X6000441Y-5819438D02*
X6000441Y-5838486D01*
D12*
X4343236Y-6259264D02*
X4368236Y-6284264D01*
X4368236Y-6259264D02*
X4343236Y-6284264D01*
D11*
X4667108Y-6163248D02*
X4686156Y-6163248D01*
X4686156Y-6163248D02*
X4705203Y-6172772D01*
X4705203Y-6172772D02*
X4714727Y-6182295D01*
X4714727Y-6182295D02*
X4724251Y-6201343D01*
X4724251Y-6201343D02*
X4733775Y-6239438D01*
X4733775Y-6239438D02*
X4733775Y-6287057D01*
X4733775Y-6287057D02*
X4724251Y-6325153D01*
X4724251Y-6325153D02*
X4714727Y-6344200D01*
X4714727Y-6344200D02*
X4705203Y-6353724D01*
X4705203Y-6353724D02*
X4686156Y-6363248D01*
X4686156Y-6363248D02*
X4667108Y-6363248D01*
X4667108Y-6363248D02*
X4648060Y-6353724D01*
X4648060Y-6353724D02*
X4638537Y-6344200D01*
X4638537Y-6344200D02*
X4629013Y-6325153D01*
X4629013Y-6325153D02*
X4619489Y-6287057D01*
X4619489Y-6287057D02*
X4619489Y-6239438D01*
X4619489Y-6239438D02*
X4629013Y-6201343D01*
X4629013Y-6201343D02*
X4638537Y-6182295D01*
X4638537Y-6182295D02*
X4648060Y-6172772D01*
X4648060Y-6172772D02*
X4667108Y-6163248D01*
X4819489Y-6344200D02*
X4829013Y-6353724D01*
X4829013Y-6353724D02*
X4819489Y-6363248D01*
X4819489Y-6363248D02*
X4809965Y-6353724D01*
X4809965Y-6353724D02*
X4819489Y-6344200D01*
X4819489Y-6344200D02*
X4819489Y-6363248D01*
X4905203Y-6182295D02*
X4914727Y-6172772D01*
X4914727Y-6172772D02*
X4933775Y-6163248D01*
X4933775Y-6163248D02*
X4981394Y-6163248D01*
X4981394Y-6163248D02*
X5000441Y-6172772D01*
X5000441Y-6172772D02*
X5009965Y-6182295D01*
X5009965Y-6182295D02*
X5019489Y-6201343D01*
X5019489Y-6201343D02*
X5019489Y-6220391D01*
X5019489Y-6220391D02*
X5009965Y-6248962D01*
X5009965Y-6248962D02*
X4895679Y-6363248D01*
X4895679Y-6363248D02*
X5019489Y-6363248D01*
X5200441Y-6163248D02*
X5105203Y-6163248D01*
X5105203Y-6163248D02*
X5095679Y-6258486D01*
X5095679Y-6258486D02*
X5105203Y-6248962D01*
X5105203Y-6248962D02*
X5124251Y-6239438D01*
X5124251Y-6239438D02*
X5171870Y-6239438D01*
X5171870Y-6239438D02*
X5190918Y-6248962D01*
X5190918Y-6248962D02*
X5200441Y-6258486D01*
X5200441Y-6258486D02*
X5209965Y-6277534D01*
X5209965Y-6277534D02*
X5209965Y-6325153D01*
X5209965Y-6325153D02*
X5200441Y-6344200D01*
X5200441Y-6344200D02*
X5190918Y-6353724D01*
X5190918Y-6353724D02*
X5171870Y-6363248D01*
X5171870Y-6363248D02*
X5124251Y-6363248D01*
X5124251Y-6363248D02*
X5105203Y-6353724D01*
X5105203Y-6353724D02*
X5095679Y-6344200D01*
X5333775Y-6163248D02*
X5352822Y-6163248D01*
X5352822Y-6163248D02*
X5371870Y-6172772D01*
X5371870Y-6172772D02*
X5381394Y-6182295D01*
X5381394Y-6182295D02*
X5390918Y-6201343D01*
X5390918Y-6201343D02*
X5400441Y-6239438D01*
X5400441Y-6239438D02*
X5400441Y-6287057D01*
X5400441Y-6287057D02*
X5390918Y-6325153D01*
X5390918Y-6325153D02*
X5381394Y-6344200D01*
X5381394Y-6344200D02*
X5371870Y-6353724D01*
X5371870Y-6353724D02*
X5352822Y-6363248D01*
X5352822Y-6363248D02*
X5333775Y-6363248D01*
X5333775Y-6363248D02*
X5314727Y-6353724D01*
X5314727Y-6353724D02*
X5305203Y-6344200D01*
X5305203Y-6344200D02*
X5295679Y-6325153D01*
X5295679Y-6325153D02*
X5286156Y-6287057D01*
X5286156Y-6287057D02*
X5286156Y-6239438D01*
X5286156Y-6239438D02*
X5295679Y-6201343D01*
X5295679Y-6201343D02*
X5305203Y-6182295D01*
X5305203Y-6182295D02*
X5314727Y-6172772D01*
X5314727Y-6172772D02*
X5333775Y-6163248D01*
X5486156Y-6363248D02*
X5486156Y-6229914D01*
X5486156Y-6248962D02*
X5495679Y-6239438D01*
X5495679Y-6239438D02*
X5514727Y-6229914D01*
X5514727Y-6229914D02*
X5543299Y-6229914D01*
X5543299Y-6229914D02*
X5562346Y-6239438D01*
X5562346Y-6239438D02*
X5571870Y-6258486D01*
X5571870Y-6258486D02*
X5571870Y-6363248D01*
X5571870Y-6258486D02*
X5581394Y-6239438D01*
X5581394Y-6239438D02*
X5600441Y-6229914D01*
X5600441Y-6229914D02*
X5629013Y-6229914D01*
X5629013Y-6229914D02*
X5648060Y-6239438D01*
X5648060Y-6239438D02*
X5657584Y-6258486D01*
X5657584Y-6258486D02*
X5657584Y-6363248D01*
X5752822Y-6363248D02*
X5752822Y-6229914D01*
X5752822Y-6248962D02*
X5762346Y-6239438D01*
X5762346Y-6239438D02*
X5781394Y-6229914D01*
X5781394Y-6229914D02*
X5809965Y-6229914D01*
X5809965Y-6229914D02*
X5829013Y-6239438D01*
X5829013Y-6239438D02*
X5838537Y-6258486D01*
X5838537Y-6258486D02*
X5838537Y-6363248D01*
X5838537Y-6258486D02*
X5848060Y-6239438D01*
X5848060Y-6239438D02*
X5867108Y-6229914D01*
X5867108Y-6229914D02*
X5895679Y-6229914D01*
X5895679Y-6229914D02*
X5914727Y-6239438D01*
X5914727Y-6239438D02*
X5924251Y-6258486D01*
X5924251Y-6258486D02*
X5924251Y-6363248D01*
X6314727Y-6153724D02*
X6143299Y-6410867D01*
X6571870Y-6163248D02*
X6590918Y-6163248D01*
X6590918Y-6163248D02*
X6609965Y-6172772D01*
X6609965Y-6172772D02*
X6619489Y-6182295D01*
X6619489Y-6182295D02*
X6629013Y-6201343D01*
X6629013Y-6201343D02*
X6638537Y-6239438D01*
X6638537Y-6239438D02*
X6638537Y-6287057D01*
X6638537Y-6287057D02*
X6629013Y-6325153D01*
X6629013Y-6325153D02*
X6619489Y-6344200D01*
X6619489Y-6344200D02*
X6609965Y-6353724D01*
X6609965Y-6353724D02*
X6590918Y-6363248D01*
X6590918Y-6363248D02*
X6571870Y-6363248D01*
X6571870Y-6363248D02*
X6552822Y-6353724D01*
X6552822Y-6353724D02*
X6543299Y-6344200D01*
X6543299Y-6344200D02*
X6533775Y-6325153D01*
X6533775Y-6325153D02*
X6524251Y-6287057D01*
X6524251Y-6287057D02*
X6524251Y-6239438D01*
X6524251Y-6239438D02*
X6533775Y-6201343D01*
X6533775Y-6201343D02*
X6543299Y-6182295D01*
X6543299Y-6182295D02*
X6552822Y-6172772D01*
X6552822Y-6172772D02*
X6571870Y-6163248D01*
X6724251Y-6344200D02*
X6733775Y-6353724D01*
X6733775Y-6353724D02*
X6724251Y-6363248D01*
X6724251Y-6363248D02*
X6714727Y-6353724D01*
X6714727Y-6353724D02*
X6724251Y-6344200D01*
X6724251Y-6344200D02*
X6724251Y-6363248D01*
X6857584Y-6163248D02*
X6876632Y-6163248D01*
X6876632Y-6163248D02*
X6895680Y-6172772D01*
X6895680Y-6172772D02*
X6905203Y-6182295D01*
X6905203Y-6182295D02*
X6914727Y-6201343D01*
X6914727Y-6201343D02*
X6924251Y-6239438D01*
X6924251Y-6239438D02*
X6924251Y-6287057D01*
X6924251Y-6287057D02*
X6914727Y-6325153D01*
X6914727Y-6325153D02*
X6905203Y-6344200D01*
X6905203Y-6344200D02*
X6895680Y-6353724D01*
X6895680Y-6353724D02*
X6876632Y-6363248D01*
X6876632Y-6363248D02*
X6857584Y-6363248D01*
X6857584Y-6363248D02*
X6838537Y-6353724D01*
X6838537Y-6353724D02*
X6829013Y-6344200D01*
X6829013Y-6344200D02*
X6819489Y-6325153D01*
X6819489Y-6325153D02*
X6809965Y-6287057D01*
X6809965Y-6287057D02*
X6809965Y-6239438D01*
X6809965Y-6239438D02*
X6819489Y-6201343D01*
X6819489Y-6201343D02*
X6829013Y-6182295D01*
X6829013Y-6182295D02*
X6838537Y-6172772D01*
X6838537Y-6172772D02*
X6857584Y-6163248D01*
X7048060Y-6163248D02*
X7067108Y-6163248D01*
X7067108Y-6163248D02*
X7086156Y-6172772D01*
X7086156Y-6172772D02*
X7095680Y-6182295D01*
X7095680Y-6182295D02*
X7105203Y-6201343D01*
X7105203Y-6201343D02*
X7114727Y-6239438D01*
X7114727Y-6239438D02*
X7114727Y-6287057D01*
X7114727Y-6287057D02*
X7105203Y-6325153D01*
X7105203Y-6325153D02*
X7095680Y-6344200D01*
X7095680Y-6344200D02*
X7086156Y-6353724D01*
X7086156Y-6353724D02*
X7067108Y-6363248D01*
X7067108Y-6363248D02*
X7048060Y-6363248D01*
X7048060Y-6363248D02*
X7029013Y-6353724D01*
X7029013Y-6353724D02*
X7019489Y-6344200D01*
X7019489Y-6344200D02*
X7009965Y-6325153D01*
X7009965Y-6325153D02*
X7000441Y-6287057D01*
X7000441Y-6287057D02*
X7000441Y-6239438D01*
X7000441Y-6239438D02*
X7009965Y-6201343D01*
X7009965Y-6201343D02*
X7019489Y-6182295D01*
X7019489Y-6182295D02*
X7029013Y-6172772D01*
X7029013Y-6172772D02*
X7048060Y-6163248D01*
X7209965Y-6363248D02*
X7248060Y-6363248D01*
X7248060Y-6363248D02*
X7267108Y-6353724D01*
X7267108Y-6353724D02*
X7276632Y-6344200D01*
X7276632Y-6344200D02*
X7295680Y-6315629D01*
X7295680Y-6315629D02*
X7305203Y-6277534D01*
X7305203Y-6277534D02*
X7305203Y-6201343D01*
X7305203Y-6201343D02*
X7295680Y-6182295D01*
X7295680Y-6182295D02*
X7286156Y-6172772D01*
X7286156Y-6172772D02*
X7267108Y-6163248D01*
X7267108Y-6163248D02*
X7229013Y-6163248D01*
X7229013Y-6163248D02*
X7209965Y-6172772D01*
X7209965Y-6172772D02*
X7200441Y-6182295D01*
X7200441Y-6182295D02*
X7190918Y-6201343D01*
X7190918Y-6201343D02*
X7190918Y-6248962D01*
X7190918Y-6248962D02*
X7200441Y-6268010D01*
X7200441Y-6268010D02*
X7209965Y-6277534D01*
X7209965Y-6277534D02*
X7229013Y-6287057D01*
X7229013Y-6287057D02*
X7267108Y-6287057D01*
X7267108Y-6287057D02*
X7286156Y-6277534D01*
X7286156Y-6277534D02*
X7295680Y-6268010D01*
X7295680Y-6268010D02*
X7305203Y-6248962D01*
X7419489Y-6248962D02*
X7400441Y-6239438D01*
X7400441Y-6239438D02*
X7390918Y-6229914D01*
X7390918Y-6229914D02*
X7381394Y-6210867D01*
X7381394Y-6210867D02*
X7381394Y-6201343D01*
X7381394Y-6201343D02*
X7390918Y-6182295D01*
X7390918Y-6182295D02*
X7400441Y-6172772D01*
X7400441Y-6172772D02*
X7419489Y-6163248D01*
X7419489Y-6163248D02*
X7457584Y-6163248D01*
X7457584Y-6163248D02*
X7476632Y-6172772D01*
X7476632Y-6172772D02*
X7486156Y-6182295D01*
X7486156Y-6182295D02*
X7495680Y-6201343D01*
X7495680Y-6201343D02*
X7495680Y-6210867D01*
X7495680Y-6210867D02*
X7486156Y-6229914D01*
X7486156Y-6229914D02*
X7476632Y-6239438D01*
X7476632Y-6239438D02*
X7457584Y-6248962D01*
X7457584Y-6248962D02*
X7419489Y-6248962D01*
X7419489Y-6248962D02*
X7400441Y-6258486D01*
X7400441Y-6258486D02*
X7390918Y-6268010D01*
X7390918Y-6268010D02*
X7381394Y-6287057D01*
X7381394Y-6287057D02*
X7381394Y-6325153D01*
X7381394Y-6325153D02*
X7390918Y-6344200D01*
X7390918Y-6344200D02*
X7400441Y-6353724D01*
X7400441Y-6353724D02*
X7419489Y-6363248D01*
X7419489Y-6363248D02*
X7457584Y-6363248D01*
X7457584Y-6363248D02*
X7476632Y-6353724D01*
X7476632Y-6353724D02*
X7486156Y-6344200D01*
X7486156Y-6344200D02*
X7495680Y-6325153D01*
X7495680Y-6325153D02*
X7495680Y-6287057D01*
X7495680Y-6287057D02*
X7486156Y-6268010D01*
X7486156Y-6268010D02*
X7476632Y-6258486D01*
X7476632Y-6258486D02*
X7457584Y-6248962D01*
X7571870Y-6163248D02*
X7571870Y-6201343D01*
X7648061Y-6163248D02*
X7648061Y-6201343D01*
X7943299Y-6439438D02*
X7933775Y-6429914D01*
X7933775Y-6429914D02*
X7914727Y-6401343D01*
X7914727Y-6401343D02*
X7905203Y-6382295D01*
X7905203Y-6382295D02*
X7895680Y-6353724D01*
X7895680Y-6353724D02*
X7886156Y-6306105D01*
X7886156Y-6306105D02*
X7886156Y-6268010D01*
X7886156Y-6268010D02*
X7895680Y-6220391D01*
X7895680Y-6220391D02*
X7905203Y-6191819D01*
X7905203Y-6191819D02*
X7914727Y-6172772D01*
X7914727Y-6172772D02*
X7933775Y-6144200D01*
X7933775Y-6144200D02*
X7943299Y-6134676D01*
X8000442Y-6163248D02*
X8124251Y-6163248D01*
X8124251Y-6163248D02*
X8057584Y-6239438D01*
X8057584Y-6239438D02*
X8086156Y-6239438D01*
X8086156Y-6239438D02*
X8105203Y-6248962D01*
X8105203Y-6248962D02*
X8114727Y-6258486D01*
X8114727Y-6258486D02*
X8124251Y-6277534D01*
X8124251Y-6277534D02*
X8124251Y-6325153D01*
X8124251Y-6325153D02*
X8114727Y-6344200D01*
X8114727Y-6344200D02*
X8105203Y-6353724D01*
X8105203Y-6353724D02*
X8086156Y-6363248D01*
X8086156Y-6363248D02*
X8029013Y-6363248D01*
X8029013Y-6363248D02*
X8009965Y-6353724D01*
X8009965Y-6353724D02*
X8000442Y-6344200D01*
X8295680Y-6163248D02*
X8257584Y-6163248D01*
X8257584Y-6163248D02*
X8238537Y-6172772D01*
X8238537Y-6172772D02*
X8229013Y-6182295D01*
X8229013Y-6182295D02*
X8209965Y-6210867D01*
X8209965Y-6210867D02*
X8200442Y-6248962D01*
X8200442Y-6248962D02*
X8200442Y-6325153D01*
X8200442Y-6325153D02*
X8209965Y-6344200D01*
X8209965Y-6344200D02*
X8219489Y-6353724D01*
X8219489Y-6353724D02*
X8238537Y-6363248D01*
X8238537Y-6363248D02*
X8276632Y-6363248D01*
X8276632Y-6363248D02*
X8295680Y-6353724D01*
X8295680Y-6353724D02*
X8305203Y-6344200D01*
X8305203Y-6344200D02*
X8314727Y-6325153D01*
X8314727Y-6325153D02*
X8314727Y-6277534D01*
X8314727Y-6277534D02*
X8305203Y-6258486D01*
X8305203Y-6258486D02*
X8295680Y-6248962D01*
X8295680Y-6248962D02*
X8276632Y-6239438D01*
X8276632Y-6239438D02*
X8238537Y-6239438D01*
X8238537Y-6239438D02*
X8219489Y-6248962D01*
X8219489Y-6248962D02*
X8209965Y-6258486D01*
X8209965Y-6258486D02*
X8200442Y-6277534D01*
X8552823Y-6363248D02*
X8552823Y-6163248D01*
X8638537Y-6363248D02*
X8638537Y-6258486D01*
X8638537Y-6258486D02*
X8629013Y-6239438D01*
X8629013Y-6239438D02*
X8609966Y-6229914D01*
X8609966Y-6229914D02*
X8581394Y-6229914D01*
X8581394Y-6229914D02*
X8562346Y-6239438D01*
X8562346Y-6239438D02*
X8552823Y-6248962D01*
X8762346Y-6363248D02*
X8743299Y-6353724D01*
X8743299Y-6353724D02*
X8733775Y-6344200D01*
X8733775Y-6344200D02*
X8724251Y-6325153D01*
X8724251Y-6325153D02*
X8724251Y-6268010D01*
X8724251Y-6268010D02*
X8733775Y-6248962D01*
X8733775Y-6248962D02*
X8743299Y-6239438D01*
X8743299Y-6239438D02*
X8762346Y-6229914D01*
X8762346Y-6229914D02*
X8790918Y-6229914D01*
X8790918Y-6229914D02*
X8809966Y-6239438D01*
X8809966Y-6239438D02*
X8819489Y-6248962D01*
X8819489Y-6248962D02*
X8829013Y-6268010D01*
X8829013Y-6268010D02*
X8829013Y-6325153D01*
X8829013Y-6325153D02*
X8819489Y-6344200D01*
X8819489Y-6344200D02*
X8809966Y-6353724D01*
X8809966Y-6353724D02*
X8790918Y-6363248D01*
X8790918Y-6363248D02*
X8762346Y-6363248D01*
X8943299Y-6363248D02*
X8924251Y-6353724D01*
X8924251Y-6353724D02*
X8914727Y-6334676D01*
X8914727Y-6334676D02*
X8914727Y-6163248D01*
X9095680Y-6353724D02*
X9076632Y-6363248D01*
X9076632Y-6363248D02*
X9038537Y-6363248D01*
X9038537Y-6363248D02*
X9019489Y-6353724D01*
X9019489Y-6353724D02*
X9009966Y-6334676D01*
X9009966Y-6334676D02*
X9009966Y-6258486D01*
X9009966Y-6258486D02*
X9019489Y-6239438D01*
X9019489Y-6239438D02*
X9038537Y-6229914D01*
X9038537Y-6229914D02*
X9076632Y-6229914D01*
X9076632Y-6229914D02*
X9095680Y-6239438D01*
X9095680Y-6239438D02*
X9105204Y-6258486D01*
X9105204Y-6258486D02*
X9105204Y-6277534D01*
X9105204Y-6277534D02*
X9009966Y-6296581D01*
X9181394Y-6353724D02*
X9200442Y-6363248D01*
X9200442Y-6363248D02*
X9238537Y-6363248D01*
X9238537Y-6363248D02*
X9257585Y-6353724D01*
X9257585Y-6353724D02*
X9267108Y-6334676D01*
X9267108Y-6334676D02*
X9267108Y-6325153D01*
X9267108Y-6325153D02*
X9257585Y-6306105D01*
X9257585Y-6306105D02*
X9238537Y-6296581D01*
X9238537Y-6296581D02*
X9209966Y-6296581D01*
X9209966Y-6296581D02*
X9190918Y-6287057D01*
X9190918Y-6287057D02*
X9181394Y-6268010D01*
X9181394Y-6268010D02*
X9181394Y-6258486D01*
X9181394Y-6258486D02*
X9190918Y-6239438D01*
X9190918Y-6239438D02*
X9209966Y-6229914D01*
X9209966Y-6229914D02*
X9238537Y-6229914D01*
X9238537Y-6229914D02*
X9257585Y-6239438D01*
X9333775Y-6439438D02*
X9343299Y-6429914D01*
X9343299Y-6429914D02*
X9362347Y-6401343D01*
X9362347Y-6401343D02*
X9371870Y-6382295D01*
X9371870Y-6382295D02*
X9381394Y-6353724D01*
X9381394Y-6353724D02*
X9390918Y-6306105D01*
X9390918Y-6306105D02*
X9390918Y-6268010D01*
X9390918Y-6268010D02*
X9381394Y-6220391D01*
X9381394Y-6220391D02*
X9371870Y-6191819D01*
X9371870Y-6191819D02*
X9362347Y-6172772D01*
X9362347Y-6172772D02*
X9343299Y-6144200D01*
X9343299Y-6144200D02*
X9333775Y-6134676D01*
M02*
