G04 #@! TF.GenerationSoftware,KiCad,Pcbnew,7.0.7*
G04 #@! TF.CreationDate,2024-03-10T05:29:25-05:00*
G04 #@! TF.ProjectId,O12imu,4f313269-6d75-42e6-9b69-6361645f7063,1*
G04 #@! TF.SameCoordinates,Original*
G04 #@! TF.FileFunction,Paste,Top*
G04 #@! TF.FilePolarity,Positive*
%FSLAX46Y46*%
G04 Gerber Fmt 4.6, Leading zero omitted, Abs format (unit mm)*
G04 Created by KiCad (PCBNEW 7.0.7) date 2024-03-10 05:29:25*
%MOMM*%
%LPD*%
G01*
G04 APERTURE LIST*
G04 Aperture macros list*
%AMRoundRect*
0 Rectangle with rounded corners*
0 $1 Rounding radius*
0 $2 $3 $4 $5 $6 $7 $8 $9 X,Y pos of 4 corners*
0 Add a 4 corners polygon primitive as box body*
4,1,4,$2,$3,$4,$5,$6,$7,$8,$9,$2,$3,0*
0 Add four circle primitives for the rounded corners*
1,1,$1+$1,$2,$3*
1,1,$1+$1,$4,$5*
1,1,$1+$1,$6,$7*
1,1,$1+$1,$8,$9*
0 Add four rect primitives between the rounded corners*
20,1,$1+$1,$2,$3,$4,$5,0*
20,1,$1+$1,$4,$5,$6,$7,0*
20,1,$1+$1,$6,$7,$8,$9,0*
20,1,$1+$1,$8,$9,$2,$3,0*%
%AMFreePoly0*
4,1,6,0.325000,0.000000,0.325000,-0.150000,-0.175000,-0.150000,-0.175000,0.150000,0.175000,0.150000,0.325000,0.000000,0.325000,0.000000,$1*%
%AMFreePoly1*
4,1,6,0.325000,0.000000,0.175000,-0.150000,-0.175000,-0.150000,-0.175000,0.150000,0.325000,0.150000,0.325000,0.000000,0.325000,0.000000,$1*%
%AMFreePoly2*
4,1,6,0.150000,-0.175000,-0.150000,-0.175000,-0.150000,0.175000,0.000000,0.325000,0.150000,0.325000,0.150000,-0.175000,0.150000,-0.175000,$1*%
%AMFreePoly3*
4,1,6,0.150000,0.175000,0.150000,-0.175000,-0.150000,-0.175000,-0.150000,0.325000,0.000000,0.325000,0.150000,0.175000,0.150000,0.175000,$1*%
%AMFreePoly4*
4,1,6,0.175000,-0.150000,-0.175000,-0.150000,-0.325000,0.000000,-0.325000,0.150000,0.175000,0.150000,0.175000,-0.150000,0.175000,-0.150000,$1*%
%AMFreePoly5*
4,1,7,0.175000,-0.150000,-0.175000,-0.150000,-0.325000,-0.150000,-0.325000,0.000000,-0.175000,0.150000,0.175000,0.150000,0.175000,-0.150000,0.175000,-0.150000,$1*%
%AMFreePoly6*
4,1,6,0.150000,-0.175000,0.000000,-0.325000,-0.150000,-0.325000,-0.150000,0.175000,0.150000,0.175000,0.150000,-0.175000,0.150000,-0.175000,$1*%
%AMFreePoly7*
4,1,6,0.150000,-0.325000,0.000000,-0.325000,-0.150000,-0.175000,-0.150000,0.175000,0.150000,0.175000,0.150000,-0.325000,0.150000,-0.325000,$1*%
G04 Aperture macros list end*
%ADD10FreePoly0,270.000000*%
%ADD11R,0.300000X0.700000*%
%ADD12FreePoly1,270.000000*%
%ADD13FreePoly2,270.000000*%
%ADD14R,0.700000X0.300000*%
%ADD15FreePoly3,270.000000*%
%ADD16FreePoly4,270.000000*%
%ADD17FreePoly5,270.000000*%
%ADD18FreePoly6,270.000000*%
%ADD19FreePoly7,270.000000*%
%ADD20RoundRect,0.140000X0.170000X-0.140000X0.170000X0.140000X-0.170000X0.140000X-0.170000X-0.140000X0*%
%ADD21R,0.533400X0.304800*%
%ADD22R,0.304800X0.533400*%
%ADD23R,0.800000X0.300000*%
%ADD24R,0.800000X0.400000*%
%ADD25RoundRect,0.050000X-0.100000X0.285000X-0.100000X-0.285000X0.100000X-0.285000X0.100000X0.285000X0*%
%ADD26R,0.300000X0.800000*%
%ADD27R,0.400000X0.800000*%
%ADD28RoundRect,0.140000X-0.170000X0.140000X-0.170000X-0.140000X0.170000X-0.140000X0.170000X0.140000X0*%
%ADD29RoundRect,0.140000X0.140000X0.170000X-0.140000X0.170000X-0.140000X-0.170000X0.140000X-0.170000X0*%
%ADD30RoundRect,0.140000X-0.140000X-0.170000X0.140000X-0.170000X0.140000X0.170000X-0.140000X0.170000X0*%
G04 APERTURE END LIST*
D10*
X50950000Y-45125000D03*
D11*
X50450000Y-45300000D03*
X49950000Y-45300000D03*
X49450000Y-45300000D03*
D12*
X48950000Y-45125000D03*
D13*
X48475000Y-45600000D03*
D14*
X48650000Y-46100000D03*
X48650000Y-46600000D03*
X48650000Y-47100000D03*
D15*
X48475000Y-47600000D03*
D16*
X48950000Y-48075000D03*
D11*
X49450000Y-47900000D03*
X49950000Y-47900000D03*
X50450000Y-47900000D03*
D17*
X50950000Y-48075000D03*
D18*
X51425000Y-47600000D03*
D14*
X51250000Y-47100000D03*
X51250000Y-46600000D03*
X51250000Y-46100000D03*
D19*
X51425000Y-45600000D03*
D20*
X52300000Y-49780000D03*
X52300000Y-48820000D03*
D21*
X48818900Y-49249999D03*
X48818900Y-49750000D03*
X48818900Y-50250000D03*
X48818900Y-50750001D03*
D22*
X49500001Y-50927100D03*
X50000000Y-50927100D03*
X50499999Y-50927100D03*
D21*
X51181100Y-50750001D03*
X51181100Y-50250000D03*
X51181100Y-49750000D03*
X51181100Y-49249999D03*
D22*
X50499999Y-49072900D03*
X50000000Y-49072900D03*
X49500001Y-49072900D03*
D23*
X47000000Y-50750000D03*
X47000000Y-50250000D03*
X47000000Y-49750000D03*
X47000000Y-49250000D03*
D24*
X44500000Y-48250000D03*
X44500000Y-51750000D03*
D25*
X54650000Y-50250000D03*
X54150000Y-50250000D03*
X53650000Y-50250000D03*
X53150000Y-50250000D03*
X53150000Y-51730000D03*
X53650000Y-51730000D03*
X54150000Y-51730000D03*
X54650000Y-51730000D03*
D26*
X50750000Y-53000000D03*
X50250000Y-53000000D03*
X49750000Y-53000000D03*
X49250000Y-53000000D03*
D27*
X48250000Y-55500000D03*
X51750000Y-55500000D03*
D28*
X52300000Y-50720000D03*
X52300000Y-51680000D03*
D29*
X49180000Y-44350000D03*
X48220000Y-44350000D03*
D30*
X50070000Y-44350000D03*
X51030000Y-44350000D03*
M02*
