G04 #@! TF.GenerationSoftware,KiCad,Pcbnew,7.0.7*
G04 #@! TF.CreationDate,2024-03-10T05:18:15-05:00*
G04 #@! TF.ProjectId,O12imu,4f313269-6d75-42e6-9b69-6361645f7063,1*
G04 #@! TF.SameCoordinates,Original*
G04 #@! TF.FileFunction,Copper,L1,Top*
G04 #@! TF.FilePolarity,Positive*
%FSLAX46Y46*%
G04 Gerber Fmt 4.6, Leading zero omitted, Abs format (unit mm)*
G04 Created by KiCad (PCBNEW 7.0.7) date 2024-03-10 05:18:15*
%MOMM*%
%LPD*%
G01*
G04 APERTURE LIST*
G04 Aperture macros list*
%AMRoundRect*
0 Rectangle with rounded corners*
0 $1 Rounding radius*
0 $2 $3 $4 $5 $6 $7 $8 $9 X,Y pos of 4 corners*
0 Add a 4 corners polygon primitive as box body*
4,1,4,$2,$3,$4,$5,$6,$7,$8,$9,$2,$3,0*
0 Add four circle primitives for the rounded corners*
1,1,$1+$1,$2,$3*
1,1,$1+$1,$4,$5*
1,1,$1+$1,$6,$7*
1,1,$1+$1,$8,$9*
0 Add four rect primitives between the rounded corners*
20,1,$1+$1,$2,$3,$4,$5,0*
20,1,$1+$1,$4,$5,$6,$7,0*
20,1,$1+$1,$6,$7,$8,$9,0*
20,1,$1+$1,$8,$9,$2,$3,0*%
%AMFreePoly0*
4,1,6,0.150000,-0.325000,0.000000,-0.325000,-0.150000,-0.175000,-0.150000,0.175000,0.150000,0.175000,0.150000,-0.325000,0.150000,-0.325000,$1*%
%AMFreePoly1*
4,1,6,0.150000,-0.175000,0.000000,-0.325000,-0.150000,-0.325000,-0.150000,0.175000,0.150000,0.175000,0.150000,-0.175000,0.150000,-0.175000,$1*%
%AMFreePoly2*
4,1,7,0.175000,-0.150000,-0.175000,-0.150000,-0.325000,-0.150000,-0.325000,0.000000,-0.175000,0.150000,0.175000,0.150000,0.175000,-0.150000,0.175000,-0.150000,$1*%
%AMFreePoly3*
4,1,6,0.175000,-0.150000,-0.175000,-0.150000,-0.325000,0.000000,-0.325000,0.150000,0.175000,0.150000,0.175000,-0.150000,0.175000,-0.150000,$1*%
%AMFreePoly4*
4,1,6,0.150000,0.175000,0.150000,-0.175000,-0.150000,-0.175000,-0.150000,0.325000,0.000000,0.325000,0.150000,0.175000,0.150000,0.175000,$1*%
%AMFreePoly5*
4,1,6,0.150000,-0.175000,-0.150000,-0.175000,-0.150000,0.175000,0.000000,0.325000,0.150000,0.325000,0.150000,-0.175000,0.150000,-0.175000,$1*%
%AMFreePoly6*
4,1,6,0.325000,0.000000,0.175000,-0.150000,-0.175000,-0.150000,-0.175000,0.150000,0.325000,0.150000,0.325000,0.000000,0.325000,0.000000,$1*%
%AMFreePoly7*
4,1,6,0.325000,0.000000,0.325000,-0.150000,-0.175000,-0.150000,-0.175000,0.150000,0.175000,0.150000,0.325000,0.000000,0.325000,0.000000,$1*%
G04 Aperture macros list end*
G04 #@! TA.AperFunction,SMDPad,CuDef*
%ADD10R,0.800000X0.300000*%
G04 #@! TD*
G04 #@! TA.AperFunction,SMDPad,CuDef*
%ADD11R,0.800000X0.400000*%
G04 #@! TD*
G04 #@! TA.AperFunction,SMDPad,CuDef*
%ADD12R,0.300000X0.800000*%
G04 #@! TD*
G04 #@! TA.AperFunction,SMDPad,CuDef*
%ADD13R,0.400000X0.800000*%
G04 #@! TD*
G04 #@! TA.AperFunction,SMDPad,CuDef*
%ADD14RoundRect,0.050000X-0.100000X0.285000X-0.100000X-0.285000X0.100000X-0.285000X0.100000X0.285000X0*%
G04 #@! TD*
G04 #@! TA.AperFunction,SMDPad,CuDef*
%ADD15FreePoly0,270.000000*%
G04 #@! TD*
G04 #@! TA.AperFunction,SMDPad,CuDef*
%ADD16R,0.700000X0.300000*%
G04 #@! TD*
G04 #@! TA.AperFunction,SMDPad,CuDef*
%ADD17FreePoly1,270.000000*%
G04 #@! TD*
G04 #@! TA.AperFunction,SMDPad,CuDef*
%ADD18FreePoly2,270.000000*%
G04 #@! TD*
G04 #@! TA.AperFunction,SMDPad,CuDef*
%ADD19R,0.300000X0.700000*%
G04 #@! TD*
G04 #@! TA.AperFunction,SMDPad,CuDef*
%ADD20FreePoly3,270.000000*%
G04 #@! TD*
G04 #@! TA.AperFunction,SMDPad,CuDef*
%ADD21FreePoly4,270.000000*%
G04 #@! TD*
G04 #@! TA.AperFunction,SMDPad,CuDef*
%ADD22FreePoly5,270.000000*%
G04 #@! TD*
G04 #@! TA.AperFunction,SMDPad,CuDef*
%ADD23FreePoly6,270.000000*%
G04 #@! TD*
G04 #@! TA.AperFunction,SMDPad,CuDef*
%ADD24FreePoly7,270.000000*%
G04 #@! TD*
G04 #@! TA.AperFunction,SMDPad,CuDef*
%ADD25RoundRect,0.140000X0.170000X-0.140000X0.170000X0.140000X-0.170000X0.140000X-0.170000X-0.140000X0*%
G04 #@! TD*
G04 #@! TA.AperFunction,SMDPad,CuDef*
%ADD26R,0.533400X0.304800*%
G04 #@! TD*
G04 #@! TA.AperFunction,SMDPad,CuDef*
%ADD27R,0.304800X0.533400*%
G04 #@! TD*
G04 #@! TA.AperFunction,SMDPad,CuDef*
%ADD28RoundRect,0.140000X-0.170000X0.140000X-0.170000X-0.140000X0.170000X-0.140000X0.170000X0.140000X0*%
G04 #@! TD*
G04 #@! TA.AperFunction,SMDPad,CuDef*
%ADD29RoundRect,0.140000X0.140000X0.170000X-0.140000X0.170000X-0.140000X-0.170000X0.140000X-0.170000X0*%
G04 #@! TD*
G04 #@! TA.AperFunction,SMDPad,CuDef*
%ADD30RoundRect,0.140000X-0.140000X-0.170000X0.140000X-0.170000X0.140000X0.170000X-0.140000X0.170000X0*%
G04 #@! TD*
G04 #@! TA.AperFunction,SMDPad,CuDef*
%ADD31RoundRect,0.150000X0.600000X-0.150000X0.600000X0.150000X-0.600000X0.150000X-0.600000X-0.150000X0*%
G04 #@! TD*
G04 #@! TA.AperFunction,ViaPad*
%ADD32C,0.550000*%
G04 #@! TD*
G04 #@! TA.AperFunction,Conductor*
%ADD33C,0.160000*%
G04 #@! TD*
G04 #@! TA.AperFunction,Conductor*
%ADD34C,0.250000*%
G04 #@! TD*
G04 #@! TA.AperFunction,Conductor*
%ADD35C,0.500000*%
G04 #@! TD*
G04 #@! TA.AperFunction,Conductor*
%ADD36C,0.200000*%
G04 #@! TD*
G04 #@! TA.AperFunction,Conductor*
%ADD37C,0.700000*%
G04 #@! TD*
G04 APERTURE END LIST*
D10*
X47000000Y-50750000D03*
X47000000Y-50250000D03*
X47000000Y-49750000D03*
X47000000Y-49250000D03*
D11*
X44500000Y-48250000D03*
X44500000Y-51750000D03*
D12*
X50750000Y-53000000D03*
X50250000Y-53000000D03*
X49750000Y-53000000D03*
X49250000Y-53000000D03*
D13*
X48250000Y-55500000D03*
X51750000Y-55500000D03*
D14*
X54650000Y-50250000D03*
X54150000Y-50250000D03*
X53650000Y-50250000D03*
X53150000Y-50250000D03*
X53150000Y-51730000D03*
X53650000Y-51730000D03*
X54150000Y-51730000D03*
X54650000Y-51730000D03*
D15*
X51425000Y-45600000D03*
D16*
X51250000Y-46100000D03*
X51250000Y-46600000D03*
X51250000Y-47100000D03*
D17*
X51425000Y-47600000D03*
D18*
X50950000Y-48075000D03*
D19*
X50450000Y-47900000D03*
X49950000Y-47900000D03*
X49450000Y-47900000D03*
D20*
X48950000Y-48075000D03*
D21*
X48475000Y-47600000D03*
D16*
X48650000Y-47100000D03*
X48650000Y-46600000D03*
X48650000Y-46100000D03*
D22*
X48475000Y-45600000D03*
D23*
X48950000Y-45125000D03*
D19*
X49450000Y-45300000D03*
X49950000Y-45300000D03*
X50450000Y-45300000D03*
D24*
X50950000Y-45125000D03*
D25*
X52300000Y-49780000D03*
X52300000Y-48820000D03*
D26*
X48818900Y-49249999D03*
X48818900Y-49750000D03*
X48818900Y-50250000D03*
X48818900Y-50750001D03*
D27*
X49500001Y-50927100D03*
X50000000Y-50927100D03*
X50499999Y-50927100D03*
D26*
X51181100Y-50750001D03*
X51181100Y-50250000D03*
X51181100Y-49750000D03*
X51181100Y-49249999D03*
D27*
X50499999Y-49072900D03*
X50000000Y-49072900D03*
X49500001Y-49072900D03*
D28*
X52300000Y-50720000D03*
X52300000Y-51680000D03*
D29*
X48220000Y-44350000D03*
X49180000Y-44350000D03*
D30*
X51120000Y-44350000D03*
X52080000Y-44350000D03*
D31*
X54500000Y-48300000D03*
X54500000Y-49300000D03*
D32*
X51608925Y-52446973D03*
X48778416Y-52307809D03*
X44505013Y-47745692D03*
X45650000Y-48400000D03*
X47886193Y-53763807D03*
X52749991Y-44610500D03*
X52655500Y-45797289D03*
X47565971Y-44426518D03*
X47750000Y-46350000D03*
X48601510Y-53023897D03*
X51150000Y-53000000D03*
X48154500Y-51350000D03*
X48100000Y-50059503D03*
X48100000Y-49350000D03*
X48365498Y-48085246D03*
X45700000Y-51834500D03*
X45264160Y-47714160D03*
X46334500Y-48150000D03*
X49500000Y-46200000D03*
X50450000Y-46850000D03*
X52300000Y-52250000D03*
X50850000Y-51400000D03*
X49750000Y-53750000D03*
X44500000Y-52250000D03*
X47750000Y-55500000D03*
X52250000Y-55500000D03*
X52950000Y-49300000D03*
X54000000Y-49400000D03*
X52100000Y-47114500D03*
X50000000Y-49610000D03*
X50250000Y-46150000D03*
X54000000Y-48200000D03*
X52322261Y-48324719D03*
X51626830Y-48184116D03*
X47800000Y-45100000D03*
X49450000Y-47250000D03*
D33*
X51300000Y-46100000D02*
X51660000Y-46100000D01*
X55498726Y-47968726D02*
X55498726Y-49652817D01*
X51660000Y-46100000D02*
X51840000Y-46280000D01*
X51840000Y-46280000D02*
X52477452Y-46280000D01*
X52477452Y-46280000D02*
X53697452Y-47500000D01*
X54941543Y-50210000D02*
X54650000Y-50210000D01*
X53697452Y-47500000D02*
X55030000Y-47500000D01*
X55030000Y-47500000D02*
X55498726Y-47968726D01*
X55498726Y-49652817D02*
X54941543Y-50210000D01*
X50950000Y-45125000D02*
X50975000Y-45150000D01*
X50975000Y-45150000D02*
X52950000Y-45150000D01*
X54860122Y-50835000D02*
X54439878Y-50835000D01*
X52950000Y-45150000D02*
X53750000Y-44350000D01*
X53750000Y-44350000D02*
X54900000Y-44350000D01*
X54900000Y-44350000D02*
X55818726Y-45268726D01*
X55818726Y-45268726D02*
X55818726Y-49876396D01*
X54439878Y-50835000D02*
X54150000Y-50545122D01*
X54150000Y-50545122D02*
X54150000Y-50250000D01*
X55818726Y-49876396D02*
X54860122Y-50835000D01*
D34*
X52300000Y-51755898D02*
X51608925Y-52446973D01*
X52300000Y-51680000D02*
X52300000Y-51755898D01*
X52300000Y-51745613D02*
X52300000Y-51680000D01*
X52300000Y-52250000D02*
X52300000Y-51745613D01*
D33*
X50250000Y-53000000D02*
X50250000Y-53530000D01*
X50360000Y-53640000D02*
X51657452Y-53640000D01*
X51657452Y-53640000D02*
X52897452Y-52400000D01*
X50250000Y-53530000D02*
X50360000Y-53640000D01*
X52897452Y-52400000D02*
X53275122Y-52400000D01*
X53275122Y-52400000D02*
X53650000Y-52025122D01*
X53650000Y-52025122D02*
X53650000Y-51730000D01*
X53455122Y-52720000D02*
X53030000Y-52720000D01*
X51790000Y-53960000D02*
X50268320Y-53960000D01*
X54150000Y-51730000D02*
X54150000Y-52025122D01*
X54150000Y-52025122D02*
X53455122Y-52720000D01*
X53030000Y-52720000D02*
X51790000Y-53960000D01*
X50268320Y-53960000D02*
X49963320Y-54265000D01*
X49963320Y-54265000D02*
X49115000Y-54265000D01*
X49115000Y-54265000D02*
X48625000Y-53775000D01*
X48154500Y-51350000D02*
X48218901Y-51350000D01*
X48218901Y-51350000D02*
X48818900Y-50750001D01*
X50250000Y-53000000D02*
X50350000Y-52900000D01*
X50350000Y-52900000D02*
X50350000Y-52287437D01*
X48008445Y-51950000D02*
X47640000Y-51581555D01*
X49141736Y-51942809D02*
X48991736Y-51792809D01*
X47640000Y-50360000D02*
X47530000Y-50250000D01*
X50005372Y-51942809D02*
X49141736Y-51942809D01*
X50350000Y-52287437D02*
X50005372Y-51942809D01*
X47530000Y-50250000D02*
X47000000Y-50250000D01*
X48991736Y-51792809D02*
X48565096Y-51792809D01*
X48407905Y-51950000D02*
X48008445Y-51950000D01*
X48565096Y-51792809D02*
X48407905Y-51950000D01*
X47640000Y-51581555D02*
X47640000Y-50360000D01*
D34*
X49677809Y-52307809D02*
X48778416Y-52307809D01*
X49750000Y-52380000D02*
X49677809Y-52307809D01*
X49750000Y-53000000D02*
X49750000Y-52380000D01*
D33*
X54650000Y-51730000D02*
X54650000Y-51434878D01*
X54650000Y-51434878D02*
X54370122Y-51155000D01*
X54370122Y-51155000D02*
X54243690Y-51155000D01*
X54243690Y-51155000D02*
X54198690Y-51110000D01*
D34*
X52690000Y-51110000D02*
X54198690Y-51110000D01*
X52300000Y-50720000D02*
X52690000Y-51110000D01*
X52300000Y-49780000D02*
X52300000Y-50720000D01*
D35*
X49180000Y-44350000D02*
X51120000Y-44350000D01*
D36*
X45650000Y-48400000D02*
X45150000Y-48900000D01*
X45150000Y-48900000D02*
X45150000Y-51280000D01*
X46061998Y-52971681D02*
X47094067Y-52971681D01*
X45160000Y-51290000D02*
X45160000Y-52069683D01*
X45150000Y-51280000D02*
X45160000Y-51290000D01*
X45160000Y-52069683D02*
X46061998Y-52971681D01*
X47094067Y-52971681D02*
X47886193Y-53763807D01*
D37*
X44500000Y-48250000D02*
X44500000Y-51750000D01*
D33*
X44500000Y-47750705D02*
X44505013Y-47745692D01*
D35*
X44500000Y-48250000D02*
X44500000Y-47750705D01*
D33*
X45264160Y-47714160D02*
X45898660Y-47714160D01*
X45898660Y-47714160D02*
X46334500Y-48150000D01*
X46334500Y-48150000D02*
X46200000Y-48150000D01*
X47750000Y-46350000D02*
X48028235Y-46100000D01*
X48028235Y-46100000D02*
X48650000Y-46100000D01*
X48625000Y-53775000D02*
X46360000Y-51510000D01*
X49250000Y-53000000D02*
X49250000Y-53150000D01*
X49250000Y-53150000D02*
X48625000Y-53775000D01*
D35*
X52489491Y-44350000D02*
X52749991Y-44610500D01*
X52080000Y-44350000D02*
X52489491Y-44350000D01*
D36*
X52458211Y-45600000D02*
X52655500Y-45797289D01*
X51425000Y-45600000D02*
X52458211Y-45600000D01*
D33*
X47642489Y-44350000D02*
X47565971Y-44426518D01*
D35*
X48220000Y-44350000D02*
X47642489Y-44350000D01*
D36*
X49500001Y-50927100D02*
X49500001Y-51366201D01*
X49500001Y-51366201D02*
X49587600Y-51453800D01*
X49997195Y-51453800D02*
X50750000Y-52206605D01*
X49587600Y-51453800D02*
X49997195Y-51453800D01*
X50750000Y-52206605D02*
X50750000Y-52350000D01*
D34*
X50850000Y-51400000D02*
X50499999Y-51399999D01*
X50499999Y-51399999D02*
X50499999Y-50927100D01*
D36*
X47000000Y-51422387D02*
X48601510Y-53023897D01*
X47000000Y-50750000D02*
X47000000Y-51422387D01*
D33*
X46360000Y-51510000D02*
X46360000Y-49360000D01*
X46360000Y-49360000D02*
X46470000Y-49250000D01*
X46470000Y-49250000D02*
X47000000Y-49250000D01*
D34*
X50750000Y-53000000D02*
X51150000Y-53000000D01*
D36*
X48300000Y-50000000D02*
X48818900Y-50000000D01*
X47993395Y-50000000D02*
X48300000Y-50000000D01*
X48300000Y-50000000D02*
X48159503Y-50000000D01*
X48159503Y-50000000D02*
X48100000Y-50059503D01*
D34*
X48818900Y-49750000D02*
X48818900Y-50000000D01*
D36*
X47000000Y-49750000D02*
X47743395Y-49750000D01*
D34*
X48818900Y-50000000D02*
X48818900Y-50250000D01*
D36*
X47743395Y-49750000D02*
X47993395Y-50000000D01*
D33*
X46849500Y-48417952D02*
X45700000Y-49567452D01*
X45700000Y-49567452D02*
X45700000Y-51834500D01*
X48460000Y-45615000D02*
X47735000Y-45615000D01*
X48475000Y-45600000D02*
X48460000Y-45615000D01*
X47735000Y-45615000D02*
X46849500Y-46500500D01*
X46849500Y-46500500D02*
X46849500Y-48417952D01*
X49500000Y-44670000D02*
X49180000Y-44350000D01*
X49500000Y-46571680D02*
X49965000Y-47036680D01*
X49500000Y-46200000D02*
X49500000Y-46571680D01*
X49965000Y-47036680D02*
X49965000Y-47885000D01*
X49965000Y-47885000D02*
X49950000Y-47900000D01*
X49500000Y-46200000D02*
X49500000Y-44670000D01*
X48100000Y-49350000D02*
X47530498Y-48845996D01*
X48250000Y-46600000D02*
X48650000Y-46600000D01*
X47530498Y-48845996D02*
X47530498Y-47319502D01*
X47530498Y-47319502D02*
X48250000Y-46600000D01*
X48700000Y-47200000D02*
X48170000Y-47200000D01*
X48205000Y-48637548D02*
X48817451Y-49249999D01*
X47850498Y-47519502D02*
X47850498Y-48298566D01*
X47850498Y-48298566D02*
X48189480Y-48637548D01*
X48170000Y-47200000D02*
X47850498Y-47519502D01*
X48189480Y-48637548D02*
X48205000Y-48637548D01*
X48817451Y-49249999D02*
X48818900Y-49249999D01*
X48365498Y-48085246D02*
X48475000Y-47975744D01*
X48475000Y-47975744D02*
X48475000Y-47600000D01*
X50450000Y-47900000D02*
X50450000Y-46850000D01*
X51181100Y-50250000D02*
X51492400Y-50250000D01*
X51687800Y-48972699D02*
X51215101Y-48500000D01*
X51492400Y-50250000D02*
X51687800Y-50054600D01*
X51215101Y-48500000D02*
X50665648Y-48500000D01*
X50500000Y-48334352D02*
X50500000Y-47900000D01*
X50665648Y-48500000D02*
X50500000Y-48334352D01*
X51687800Y-50054600D02*
X51687800Y-48972699D01*
X50250000Y-46150000D02*
X50357685Y-46150000D01*
X50357685Y-46150000D02*
X50000000Y-45792315D01*
X50000000Y-45792315D02*
X50000000Y-45300000D01*
X49450000Y-47250000D02*
X49450000Y-47900000D01*
X50000000Y-49600092D02*
X50000000Y-49072900D01*
D36*
X50750000Y-52350000D02*
X50950000Y-52350000D01*
D34*
X50750000Y-53000000D02*
X50750000Y-52350000D01*
D36*
X51400000Y-50968901D02*
X51181100Y-50750001D01*
X50950000Y-52350000D02*
X51400000Y-51900000D01*
X51400000Y-51900000D02*
X51400000Y-50968901D01*
D34*
X49750000Y-53000000D02*
X49750000Y-53600000D01*
X50000000Y-50927100D02*
X50499999Y-50927100D01*
X53150000Y-51730000D02*
X52750000Y-51730000D01*
X52750000Y-51730000D02*
X52350000Y-51730000D01*
X52350000Y-51730000D02*
X52300000Y-51680000D01*
D35*
X44500000Y-51750000D02*
X44500000Y-52250000D01*
D33*
X48250000Y-55500000D02*
X47750000Y-55500000D01*
X51750000Y-55500000D02*
X52250000Y-55500000D01*
X53650000Y-50250000D02*
X54150000Y-50250000D01*
X53150000Y-50210000D02*
X53150000Y-49815000D01*
X53465000Y-49513320D02*
X53465000Y-49086680D01*
X53150000Y-49815000D02*
X53163320Y-49815000D01*
X53163320Y-49815000D02*
X53465000Y-49513320D01*
X53465000Y-49086680D02*
X53170000Y-48791680D01*
X53170000Y-48791680D02*
X53170000Y-47425096D01*
X53170000Y-47425096D02*
X52344904Y-46600000D01*
X52344904Y-46600000D02*
X51300000Y-46600000D01*
X52950000Y-49300000D02*
X52850000Y-49200000D01*
X52850000Y-49200000D02*
X52850000Y-47750000D01*
X52850000Y-47750000D02*
X52729500Y-47629500D01*
X51504500Y-47629500D02*
X51475000Y-47600000D01*
X52729500Y-47629500D02*
X51504500Y-47629500D01*
X50499999Y-49072900D02*
X50499999Y-48786899D01*
X50499999Y-48786899D02*
X50213100Y-48500000D01*
X49000000Y-48380000D02*
X49000000Y-48075000D01*
X50213100Y-48500000D02*
X49120000Y-48500000D01*
X49120000Y-48500000D02*
X49000000Y-48380000D01*
X52100000Y-47114500D02*
X51935500Y-47100000D01*
X51935500Y-47100000D02*
X51300000Y-47100000D01*
D34*
X51181100Y-50750001D02*
X52269999Y-50750001D01*
X52269999Y-50750001D02*
X52300000Y-50720000D01*
D33*
X52300000Y-48346980D02*
X52322261Y-48324719D01*
X52300000Y-48820000D02*
X52300000Y-48346980D01*
X51517714Y-48075000D02*
X51626830Y-48184116D01*
X51000000Y-48075000D02*
X51517714Y-48075000D01*
X49000000Y-45125000D02*
X48975000Y-45100000D01*
X48975000Y-45100000D02*
X47800000Y-45100000D01*
X48525000Y-47700000D02*
X48525000Y-48505000D01*
X48525000Y-48505000D02*
X48877599Y-48857599D01*
X48877599Y-48857599D02*
X49284700Y-48857599D01*
X49284700Y-48857599D02*
X49500001Y-49072900D01*
G04 #@! TA.AperFunction,Conductor*
G36*
X55988086Y-50200464D02*
G01*
X56031351Y-50243729D01*
X56042141Y-50288674D01*
X56042141Y-54241013D01*
X56042035Y-54244253D01*
X56026954Y-54474280D01*
X56026108Y-54480706D01*
X55981451Y-54705188D01*
X55979774Y-54711449D01*
X55906194Y-54928200D01*
X55903713Y-54934189D01*
X55802479Y-55139467D01*
X55799238Y-55145080D01*
X55672072Y-55335396D01*
X55668129Y-55340534D01*
X55630787Y-55383116D01*
X55517209Y-55512626D01*
X55512626Y-55517209D01*
X55416228Y-55601748D01*
X55340534Y-55668129D01*
X55335396Y-55672072D01*
X55145080Y-55799238D01*
X55139467Y-55802479D01*
X54934189Y-55903713D01*
X54928200Y-55906194D01*
X54711449Y-55979774D01*
X54705188Y-55981451D01*
X54523857Y-56017523D01*
X54480703Y-56026108D01*
X54474280Y-56026954D01*
X54244254Y-56042035D01*
X54241014Y-56042141D01*
X52623089Y-56042141D01*
X52564898Y-56023234D01*
X52528934Y-55973734D01*
X52528934Y-55912548D01*
X52560482Y-55869125D01*
X52559239Y-55867691D01*
X52564586Y-55863057D01*
X52564586Y-55863056D01*
X52564589Y-55863055D01*
X52654130Y-55759718D01*
X52710931Y-55635342D01*
X52730390Y-55500000D01*
X52716337Y-55402259D01*
X52710932Y-55364662D01*
X52710930Y-55364654D01*
X52654131Y-55240284D01*
X52654130Y-55240283D01*
X52654130Y-55240282D01*
X52564589Y-55136945D01*
X52449561Y-55063022D01*
X52421822Y-55054877D01*
X52318368Y-55024500D01*
X52318367Y-55024500D01*
X52193608Y-55024500D01*
X52135417Y-55005593D01*
X52111293Y-54980502D01*
X52094554Y-54955451D01*
X52094552Y-54955448D01*
X52094548Y-54955445D01*
X52028233Y-54911134D01*
X52028231Y-54911133D01*
X52028228Y-54911132D01*
X52028227Y-54911132D01*
X51969758Y-54899501D01*
X51969748Y-54899500D01*
X51530252Y-54899500D01*
X51530251Y-54899500D01*
X51530241Y-54899501D01*
X51471772Y-54911132D01*
X51471766Y-54911134D01*
X51405451Y-54955445D01*
X51405445Y-54955451D01*
X51361134Y-55021766D01*
X51361132Y-55021772D01*
X51349501Y-55080241D01*
X51349500Y-55080253D01*
X51349500Y-55919755D01*
X51350311Y-55923829D01*
X51343118Y-55984590D01*
X51301585Y-56029519D01*
X51253213Y-56042141D01*
X48746787Y-56042141D01*
X48688596Y-56023234D01*
X48652632Y-55973734D01*
X48649689Y-55923829D01*
X48650499Y-55919755D01*
X48650500Y-55919746D01*
X48650500Y-55080253D01*
X48650498Y-55080241D01*
X48647073Y-55063022D01*
X48638867Y-55021769D01*
X48594552Y-54955448D01*
X48594548Y-54955445D01*
X48528233Y-54911134D01*
X48528231Y-54911133D01*
X48528228Y-54911132D01*
X48528227Y-54911132D01*
X48469758Y-54899501D01*
X48469748Y-54899500D01*
X48030252Y-54899500D01*
X48030251Y-54899500D01*
X48030241Y-54899501D01*
X47971772Y-54911132D01*
X47971766Y-54911134D01*
X47905451Y-54955445D01*
X47905445Y-54955451D01*
X47888707Y-54980502D01*
X47840657Y-55018381D01*
X47806392Y-55024500D01*
X47681631Y-55024500D01*
X47550441Y-55063021D01*
X47550439Y-55063021D01*
X47550439Y-55063022D01*
X47435411Y-55136945D01*
X47435410Y-55136945D01*
X47435410Y-55136946D01*
X47345868Y-55240284D01*
X47289069Y-55364654D01*
X47289067Y-55364662D01*
X47269610Y-55499997D01*
X47269610Y-55500002D01*
X47289067Y-55635337D01*
X47289069Y-55635345D01*
X47345868Y-55759715D01*
X47345869Y-55759716D01*
X47345870Y-55759718D01*
X47435411Y-55863055D01*
X47435413Y-55863057D01*
X47440761Y-55867691D01*
X47438745Y-55870016D01*
X47469171Y-55907236D01*
X47472655Y-55968322D01*
X47439569Y-56019790D01*
X47382549Y-56041980D01*
X47376911Y-56042141D01*
X45758986Y-56042141D01*
X45755746Y-56042035D01*
X45525719Y-56026954D01*
X45519298Y-56026108D01*
X45430081Y-56008360D01*
X45294811Y-55981451D01*
X45288550Y-55979774D01*
X45071799Y-55906194D01*
X45065810Y-55903713D01*
X44992766Y-55867691D01*
X44860526Y-55802476D01*
X44854919Y-55799238D01*
X44795769Y-55759715D01*
X44664597Y-55672067D01*
X44659472Y-55668135D01*
X44487370Y-55517206D01*
X44482790Y-55512626D01*
X44471719Y-55500002D01*
X44331862Y-55340525D01*
X44327933Y-55335405D01*
X44200758Y-55145075D01*
X44197526Y-55139478D01*
X44096283Y-54934182D01*
X44093805Y-54928200D01*
X44020225Y-54711449D01*
X44018548Y-54705188D01*
X43973888Y-54480688D01*
X43973046Y-54474290D01*
X43957963Y-54244226D01*
X43957911Y-54242641D01*
X44551716Y-54242641D01*
X44572244Y-54464177D01*
X44633130Y-54678169D01*
X44732301Y-54877330D01*
X44866378Y-55054877D01*
X45030797Y-55204765D01*
X45219958Y-55321888D01*
X45427419Y-55402259D01*
X45646116Y-55443141D01*
X45868602Y-55443141D01*
X46087299Y-55402259D01*
X46294760Y-55321888D01*
X46483921Y-55204765D01*
X46648340Y-55054877D01*
X46782417Y-54877330D01*
X46881588Y-54678169D01*
X46942474Y-54464177D01*
X46963002Y-54242641D01*
X46942474Y-54021105D01*
X46881588Y-53807113D01*
X46782417Y-53607952D01*
X46648340Y-53430405D01*
X46483921Y-53280517D01*
X46294760Y-53163394D01*
X46087299Y-53083023D01*
X46087298Y-53083022D01*
X46087296Y-53083022D01*
X45868602Y-53042141D01*
X45646116Y-53042141D01*
X45427421Y-53083022D01*
X45373754Y-53103813D01*
X45219958Y-53163394D01*
X45063126Y-53260500D01*
X45030797Y-53280517D01*
X44866379Y-53430404D01*
X44732302Y-53607950D01*
X44732297Y-53607959D01*
X44661569Y-53750000D01*
X44633130Y-53807113D01*
X44572244Y-54021105D01*
X44551716Y-54242641D01*
X43957911Y-54242641D01*
X43957859Y-54241038D01*
X43957859Y-54225500D01*
X43957859Y-52615873D01*
X43976766Y-52557683D01*
X44026266Y-52521719D01*
X44087452Y-52521719D01*
X44131678Y-52551043D01*
X44145959Y-52567524D01*
X44158777Y-52582318D01*
X44185411Y-52613055D01*
X44300439Y-52686978D01*
X44431633Y-52725500D01*
X44431634Y-52725500D01*
X44568366Y-52725500D01*
X44568367Y-52725500D01*
X44699561Y-52686978D01*
X44814589Y-52613055D01*
X44904130Y-52509718D01*
X44960931Y-52385342D01*
X44966658Y-52345511D01*
X44980390Y-52250002D01*
X44980390Y-52250000D01*
X44977964Y-52233130D01*
X44974500Y-52209038D01*
X44984932Y-52148751D01*
X45017489Y-52112635D01*
X45044552Y-52094552D01*
X45088867Y-52028231D01*
X45088867Y-52028230D01*
X45094284Y-52020124D01*
X45097217Y-52022083D01*
X45125657Y-51988761D01*
X45185147Y-51974456D01*
X45241683Y-51997851D01*
X45267468Y-52032028D01*
X45295868Y-52094215D01*
X45295869Y-52094216D01*
X45295870Y-52094218D01*
X45385411Y-52197555D01*
X45500439Y-52271478D01*
X45631633Y-52310000D01*
X45631634Y-52310000D01*
X45768366Y-52310000D01*
X45768367Y-52310000D01*
X45899561Y-52271478D01*
X46014589Y-52197555D01*
X46104130Y-52094218D01*
X46158824Y-51974456D01*
X46160930Y-51969845D01*
X46160930Y-51969844D01*
X46160931Y-51969842D01*
X46165747Y-51936344D01*
X46192741Y-51881439D01*
X46246855Y-51852884D01*
X46307418Y-51861591D01*
X46333743Y-51880430D01*
X48389221Y-53935907D01*
X48404510Y-53956153D01*
X48405465Y-53957303D01*
X48434064Y-53981051D01*
X48437445Y-53984133D01*
X48875592Y-54422280D01*
X48880097Y-54427457D01*
X48887278Y-54436966D01*
X48887279Y-54436967D01*
X48904121Y-54452321D01*
X48920384Y-54467146D01*
X48922036Y-54468724D01*
X48935033Y-54481721D01*
X48935037Y-54481724D01*
X48937579Y-54483465D01*
X48942959Y-54487725D01*
X48964778Y-54507617D01*
X48964779Y-54507617D01*
X48964780Y-54507618D01*
X48972610Y-54510651D01*
X48992796Y-54521290D01*
X48999738Y-54526045D01*
X49028481Y-54532804D01*
X49035034Y-54534833D01*
X49062565Y-54545500D01*
X49070969Y-54545500D01*
X49093636Y-54548129D01*
X49101821Y-54550055D01*
X49125354Y-54546771D01*
X49131070Y-54545975D01*
X49137916Y-54545500D01*
X49905245Y-54545500D01*
X49912092Y-54545975D01*
X49923893Y-54547621D01*
X49923896Y-54547622D01*
X49923898Y-54547621D01*
X49923899Y-54547622D01*
X49941604Y-54546803D01*
X49968654Y-54545552D01*
X49970931Y-54545500D01*
X49989309Y-54545500D01*
X49989313Y-54545500D01*
X49992343Y-54544933D01*
X49999145Y-54544142D01*
X50028653Y-54542779D01*
X50036344Y-54539382D01*
X50058139Y-54532633D01*
X50066404Y-54531089D01*
X50091513Y-54515540D01*
X50097564Y-54512351D01*
X50124586Y-54500421D01*
X50130529Y-54494476D01*
X50148417Y-54480308D01*
X50155565Y-54475883D01*
X50173366Y-54452308D01*
X50177849Y-54447156D01*
X50355510Y-54269496D01*
X50408218Y-54242641D01*
X53036998Y-54242641D01*
X53057526Y-54464177D01*
X53118412Y-54678169D01*
X53217583Y-54877330D01*
X53351660Y-55054877D01*
X53516079Y-55204765D01*
X53705240Y-55321888D01*
X53912701Y-55402259D01*
X54131398Y-55443141D01*
X54353884Y-55443141D01*
X54572581Y-55402259D01*
X54780042Y-55321888D01*
X54969203Y-55204765D01*
X55133622Y-55054877D01*
X55267699Y-54877330D01*
X55366870Y-54678169D01*
X55427756Y-54464177D01*
X55448284Y-54242641D01*
X55427756Y-54021105D01*
X55366870Y-53807113D01*
X55267699Y-53607952D01*
X55133622Y-53430405D01*
X54969203Y-53280517D01*
X54780042Y-53163394D01*
X54572581Y-53083023D01*
X54572580Y-53083022D01*
X54572578Y-53083022D01*
X54353884Y-53042141D01*
X54131398Y-53042141D01*
X53912703Y-53083022D01*
X53859036Y-53103813D01*
X53705240Y-53163394D01*
X53548408Y-53260500D01*
X53516079Y-53280517D01*
X53351661Y-53430404D01*
X53217584Y-53607950D01*
X53217579Y-53607959D01*
X53118413Y-53807110D01*
X53057526Y-54021105D01*
X53037449Y-54237779D01*
X53036998Y-54242641D01*
X50408218Y-54242641D01*
X50410028Y-54241719D01*
X50425514Y-54240500D01*
X51731925Y-54240500D01*
X51738772Y-54240975D01*
X51750573Y-54242621D01*
X51750576Y-54242622D01*
X51750578Y-54242621D01*
X51750579Y-54242622D01*
X51770108Y-54241719D01*
X51795334Y-54240552D01*
X51797611Y-54240500D01*
X51815989Y-54240500D01*
X51815993Y-54240500D01*
X51819023Y-54239933D01*
X51825825Y-54239142D01*
X51855333Y-54237779D01*
X51863024Y-54234382D01*
X51884819Y-54227633D01*
X51893084Y-54226089D01*
X51918193Y-54210540D01*
X51924244Y-54207351D01*
X51951266Y-54195421D01*
X51957209Y-54189476D01*
X51975097Y-54175308D01*
X51982245Y-54170883D01*
X52000043Y-54147312D01*
X52004540Y-54142146D01*
X53117190Y-53029496D01*
X53171707Y-53001719D01*
X53187194Y-53000500D01*
X53397047Y-53000500D01*
X53403894Y-53000975D01*
X53415695Y-53002621D01*
X53415698Y-53002622D01*
X53415700Y-53002621D01*
X53415701Y-53002622D01*
X53435230Y-53001719D01*
X53460456Y-53000552D01*
X53462733Y-53000500D01*
X53481111Y-53000500D01*
X53481115Y-53000500D01*
X53484145Y-52999933D01*
X53490947Y-52999142D01*
X53520455Y-52997779D01*
X53528146Y-52994382D01*
X53549941Y-52987633D01*
X53558206Y-52986089D01*
X53583315Y-52970540D01*
X53589366Y-52967351D01*
X53616388Y-52955421D01*
X53622331Y-52949476D01*
X53640219Y-52935308D01*
X53647367Y-52930883D01*
X53665165Y-52907312D01*
X53669662Y-52902146D01*
X53958756Y-52613052D01*
X54292930Y-52278877D01*
X54343622Y-52251785D01*
X54347740Y-52250966D01*
X54397371Y-52217804D01*
X54430597Y-52195604D01*
X54430597Y-52195603D01*
X54430601Y-52195601D01*
X54485966Y-52112740D01*
X54500500Y-52039674D01*
X54500500Y-51420326D01*
X54485966Y-51347260D01*
X54434010Y-51269501D01*
X54417402Y-51210613D01*
X54438580Y-51153209D01*
X54489454Y-51119217D01*
X54516326Y-51115500D01*
X54802047Y-51115500D01*
X54808894Y-51115975D01*
X54820695Y-51117621D01*
X54820698Y-51117622D01*
X54820700Y-51117621D01*
X54820701Y-51117622D01*
X54838406Y-51116803D01*
X54865456Y-51115552D01*
X54867733Y-51115500D01*
X54886111Y-51115500D01*
X54886115Y-51115500D01*
X54889145Y-51114933D01*
X54895947Y-51114142D01*
X54925455Y-51112779D01*
X54933146Y-51109382D01*
X54954941Y-51102633D01*
X54963206Y-51101089D01*
X54988315Y-51085540D01*
X54994366Y-51082351D01*
X55021388Y-51070421D01*
X55027331Y-51064476D01*
X55045219Y-51050308D01*
X55052367Y-51045883D01*
X55070165Y-51022312D01*
X55074662Y-51017146D01*
X55472401Y-50619407D01*
X55873137Y-50218669D01*
X55927654Y-50190893D01*
X55988086Y-50200464D01*
G37*
G04 #@! TD.AperFunction*
G04 #@! TA.AperFunction,Conductor*
G36*
X52090099Y-49300500D02*
G01*
X52383897Y-49300499D01*
X52442087Y-49319406D01*
X52478051Y-49368906D01*
X52481889Y-49385410D01*
X52489068Y-49435341D01*
X52539640Y-49546076D01*
X52545870Y-49559718D01*
X52635411Y-49663055D01*
X52750439Y-49736978D01*
X52750444Y-49736979D01*
X52750445Y-49736980D01*
X52756883Y-49739921D01*
X52756245Y-49741316D01*
X52800004Y-49771232D01*
X52820569Y-49828858D01*
X52815285Y-49857568D01*
X52815936Y-49857698D01*
X52799501Y-49940315D01*
X52799500Y-49940327D01*
X52799500Y-50559672D01*
X52799501Y-50559684D01*
X52814033Y-50632736D01*
X52814035Y-50632742D01*
X52869397Y-50715599D01*
X52869400Y-50715602D01*
X52919385Y-50749000D01*
X52952260Y-50770966D01*
X52995193Y-50779506D01*
X53025315Y-50785498D01*
X53025320Y-50785498D01*
X53025326Y-50785500D01*
X53025327Y-50785500D01*
X53274673Y-50785500D01*
X53274674Y-50785500D01*
X53347740Y-50770966D01*
X53347746Y-50770961D01*
X53356752Y-50767233D01*
X53357586Y-50769248D01*
X53403880Y-50756189D01*
X53442610Y-50768773D01*
X53443248Y-50767233D01*
X53452255Y-50770962D01*
X53452260Y-50770966D01*
X53495193Y-50779506D01*
X53525315Y-50785498D01*
X53525320Y-50785498D01*
X53525326Y-50785500D01*
X53525327Y-50785500D01*
X53774673Y-50785500D01*
X53774674Y-50785500D01*
X53847740Y-50770966D01*
X53847746Y-50770961D01*
X53856752Y-50767233D01*
X53857586Y-50769248D01*
X53903880Y-50756189D01*
X53942612Y-50768773D01*
X53943250Y-50767234D01*
X53952256Y-50770963D01*
X53952260Y-50770966D01*
X53954492Y-50771410D01*
X53956376Y-50771785D01*
X54007070Y-50798879D01*
X54200470Y-50992280D01*
X54204975Y-50997457D01*
X54212159Y-51006969D01*
X54229018Y-51022339D01*
X54259284Y-51075514D01*
X54252513Y-51136324D01*
X54211292Y-51181540D01*
X54162322Y-51194500D01*
X54025326Y-51194500D01*
X54025325Y-51194500D01*
X54025315Y-51194501D01*
X53952263Y-51209033D01*
X53952261Y-51209033D01*
X53952260Y-51209034D01*
X53952259Y-51209034D01*
X53943251Y-51212766D01*
X53942416Y-51210751D01*
X53896112Y-51223811D01*
X53857386Y-51211227D01*
X53856749Y-51212766D01*
X53847742Y-51209035D01*
X53847740Y-51209034D01*
X53847736Y-51209033D01*
X53774684Y-51194501D01*
X53774674Y-51194500D01*
X53525326Y-51194500D01*
X53525323Y-51194500D01*
X53452259Y-51209033D01*
X53443255Y-51212764D01*
X53442421Y-51210751D01*
X53396099Y-51223809D01*
X53357388Y-51211229D01*
X53356752Y-51212767D01*
X53347742Y-51209035D01*
X53347740Y-51209034D01*
X53347736Y-51209033D01*
X53274684Y-51194501D01*
X53274674Y-51194500D01*
X53025326Y-51194500D01*
X53025325Y-51194500D01*
X53025315Y-51194501D01*
X52952263Y-51209033D01*
X52952257Y-51209035D01*
X52869400Y-51264397D01*
X52869395Y-51264402D01*
X52858928Y-51280068D01*
X52810878Y-51317947D01*
X52749739Y-51320349D01*
X52706611Y-51295071D01*
X52668316Y-51256776D01*
X52668314Y-51256775D01*
X52668313Y-51256774D01*
X52569320Y-51210613D01*
X52559488Y-51206028D01*
X52542958Y-51203852D01*
X52509901Y-51199500D01*
X52509899Y-51199500D01*
X52090103Y-51199500D01*
X52090092Y-51199501D01*
X52040513Y-51206027D01*
X52040511Y-51206027D01*
X51931686Y-51256774D01*
X51846774Y-51341686D01*
X51796029Y-51450510D01*
X51796028Y-51450511D01*
X51789500Y-51500100D01*
X51789500Y-51765064D01*
X51770593Y-51823255D01*
X51760504Y-51835067D01*
X51653096Y-51942476D01*
X51598579Y-51970254D01*
X51583092Y-51971473D01*
X51540556Y-51971473D01*
X51409366Y-52009994D01*
X51409364Y-52009994D01*
X51409364Y-52009995D01*
X51294336Y-52083918D01*
X51294335Y-52083918D01*
X51294335Y-52083919D01*
X51204793Y-52187257D01*
X51147994Y-52311627D01*
X51147992Y-52311635D01*
X51128535Y-52446970D01*
X51128535Y-52446975D01*
X51147992Y-52582310D01*
X51147994Y-52582318D01*
X51204793Y-52706688D01*
X51204794Y-52706689D01*
X51204795Y-52706691D01*
X51294336Y-52810028D01*
X51409364Y-52883951D01*
X51540558Y-52922473D01*
X51540559Y-52922473D01*
X51677291Y-52922473D01*
X51677292Y-52922473D01*
X51731244Y-52906631D01*
X51792403Y-52908378D01*
X51840856Y-52945740D01*
X51858095Y-53004447D01*
X51837534Y-53062074D01*
X51829139Y-53071624D01*
X51570261Y-53330503D01*
X51515744Y-53358281D01*
X51500257Y-53359500D01*
X50699500Y-53359500D01*
X50641309Y-53340593D01*
X50605345Y-53291093D01*
X50600500Y-53260500D01*
X50600500Y-53060025D01*
X50608936Y-53020036D01*
X50611040Y-53015266D01*
X50611044Y-53015262D01*
X50617805Y-52986513D01*
X50619829Y-52979977D01*
X50630500Y-52952435D01*
X50630500Y-52944027D01*
X50633130Y-52921358D01*
X50635054Y-52913179D01*
X50630975Y-52883934D01*
X50630500Y-52877088D01*
X50630500Y-52345511D01*
X50630975Y-52338663D01*
X50632622Y-52326859D01*
X50630553Y-52282110D01*
X50630500Y-52279824D01*
X50630500Y-52261447D01*
X50630500Y-52261444D01*
X50629931Y-52258402D01*
X50629142Y-52251605D01*
X50627779Y-52222104D01*
X50624382Y-52214411D01*
X50617633Y-52192614D01*
X50616089Y-52184353D01*
X50600539Y-52159239D01*
X50597349Y-52153188D01*
X50585421Y-52126171D01*
X50585419Y-52126169D01*
X50585419Y-52126168D01*
X50579473Y-52120222D01*
X50565309Y-52102340D01*
X50560884Y-52095193D01*
X50560880Y-52095190D01*
X50560035Y-52094552D01*
X50554371Y-52090274D01*
X50537321Y-52077398D01*
X50532144Y-52072893D01*
X50351572Y-51892322D01*
X50323795Y-51837805D01*
X50333366Y-51777373D01*
X50376631Y-51734108D01*
X50437063Y-51724537D01*
X50438769Y-51724822D01*
X50442602Y-51725497D01*
X50442605Y-51725499D01*
X50457656Y-51725499D01*
X50515847Y-51744406D01*
X50532473Y-51759665D01*
X50535411Y-51763055D01*
X50650439Y-51836978D01*
X50781633Y-51875500D01*
X50781634Y-51875500D01*
X50918366Y-51875500D01*
X50918367Y-51875500D01*
X51049561Y-51836978D01*
X51164589Y-51763055D01*
X51254130Y-51659718D01*
X51282530Y-51597530D01*
X51310930Y-51535345D01*
X51310932Y-51535337D01*
X51330390Y-51400002D01*
X51330390Y-51399997D01*
X51310932Y-51264662D01*
X51310930Y-51264654D01*
X51254131Y-51140284D01*
X51254130Y-51140283D01*
X51254130Y-51140282D01*
X51164589Y-51036945D01*
X51049561Y-50963022D01*
X51049558Y-50963021D01*
X50924007Y-50926155D01*
X50873500Y-50891618D01*
X50852939Y-50833991D01*
X50852899Y-50831165D01*
X50852899Y-50738108D01*
X50871806Y-50679917D01*
X50881895Y-50668104D01*
X50899999Y-50650000D01*
X50900000Y-50650000D01*
X50900000Y-50649999D01*
X50918103Y-50631896D01*
X50972620Y-50604119D01*
X50988107Y-50602900D01*
X51467547Y-50602900D01*
X51467548Y-50602900D01*
X51526031Y-50591267D01*
X51592352Y-50546952D01*
X51609017Y-50522009D01*
X51646203Y-50490767D01*
X51646094Y-50490608D01*
X51647716Y-50489496D01*
X51651351Y-50486443D01*
X51653666Y-50485421D01*
X51659609Y-50479476D01*
X51677497Y-50465308D01*
X51684645Y-50460883D01*
X51702443Y-50437312D01*
X51706940Y-50432146D01*
X51845077Y-50294009D01*
X51850256Y-50289502D01*
X51859761Y-50282323D01*
X51859767Y-50282321D01*
X51889983Y-50249174D01*
X51891516Y-50247569D01*
X51904523Y-50234564D01*
X51906271Y-50232010D01*
X51910515Y-50226651D01*
X51930417Y-50204822D01*
X51933453Y-50196982D01*
X51944095Y-50176793D01*
X51948844Y-50169862D01*
X51955604Y-50141118D01*
X51957630Y-50134573D01*
X51968300Y-50107035D01*
X51968299Y-50098627D01*
X51970928Y-50075962D01*
X51972854Y-50067779D01*
X51968775Y-50038535D01*
X51968300Y-50031689D01*
X51968300Y-49736978D01*
X51968300Y-49397348D01*
X51987206Y-49339161D01*
X52036706Y-49303197D01*
X52080220Y-49299199D01*
X52090099Y-49300500D01*
G37*
G04 #@! TD.AperFunction*
G04 #@! TA.AperFunction,Conductor*
G36*
X47318691Y-50619407D02*
G01*
X47354655Y-50668907D01*
X47359500Y-50699500D01*
X47359500Y-51523475D01*
X47359025Y-51530320D01*
X47357377Y-51542131D01*
X47359447Y-51586880D01*
X47359500Y-51589166D01*
X47359500Y-51607552D01*
X47360067Y-51610585D01*
X47360857Y-51617394D01*
X47362221Y-51646889D01*
X47365616Y-51654578D01*
X47372364Y-51676369D01*
X47373909Y-51684635D01*
X47373910Y-51684637D01*
X47373911Y-51684639D01*
X47389457Y-51709747D01*
X47392651Y-51715807D01*
X47397190Y-51726086D01*
X47404579Y-51742821D01*
X47410526Y-51748768D01*
X47424688Y-51766647D01*
X47429117Y-51773800D01*
X47452676Y-51791591D01*
X47457854Y-51796097D01*
X47769037Y-52107280D01*
X47773542Y-52112457D01*
X47780723Y-52121966D01*
X47780724Y-52121967D01*
X47802193Y-52141539D01*
X47813829Y-52152146D01*
X47815481Y-52153724D01*
X47828479Y-52166722D01*
X47829580Y-52167476D01*
X47831020Y-52168462D01*
X47836397Y-52172720D01*
X47844302Y-52179926D01*
X47858222Y-52192617D01*
X47862668Y-52194339D01*
X47866058Y-52195652D01*
X47886246Y-52206292D01*
X47893183Y-52211045D01*
X47921926Y-52217804D01*
X47928483Y-52219835D01*
X47956010Y-52230500D01*
X47964414Y-52230500D01*
X47987081Y-52233129D01*
X47995266Y-52235055D01*
X48018799Y-52231771D01*
X48024515Y-52230975D01*
X48031361Y-52230500D01*
X48201127Y-52230500D01*
X48259318Y-52249407D01*
X48295282Y-52298907D01*
X48299119Y-52315412D01*
X48317483Y-52443145D01*
X48317485Y-52443154D01*
X48374284Y-52567524D01*
X48374285Y-52567525D01*
X48374286Y-52567527D01*
X48463827Y-52670864D01*
X48578855Y-52744787D01*
X48710049Y-52783309D01*
X48710050Y-52783309D01*
X48800499Y-52783309D01*
X48858690Y-52802216D01*
X48894654Y-52851716D01*
X48899499Y-52882309D01*
X48899499Y-53062806D01*
X48880592Y-53120997D01*
X48870502Y-53132810D01*
X48695002Y-53308309D01*
X48640486Y-53336086D01*
X48580054Y-53326515D01*
X48554995Y-53308309D01*
X47632031Y-52385345D01*
X46669496Y-51422809D01*
X46641719Y-51368292D01*
X46640500Y-51352805D01*
X46640500Y-50699500D01*
X46659407Y-50641309D01*
X46708907Y-50605345D01*
X46739500Y-50600500D01*
X47260500Y-50600500D01*
X47318691Y-50619407D01*
G37*
G04 #@! TD.AperFunction*
G04 #@! TA.AperFunction,Conductor*
G36*
X49606291Y-50668907D02*
G01*
X49642255Y-50718407D01*
X49647100Y-50749000D01*
X49647100Y-51213546D01*
X49647101Y-51213558D01*
X49658732Y-51272027D01*
X49658734Y-51272033D01*
X49699554Y-51333123D01*
X49703048Y-51338352D01*
X49769369Y-51382667D01*
X49813831Y-51391511D01*
X49827841Y-51394298D01*
X49827846Y-51394298D01*
X49827852Y-51394300D01*
X49827853Y-51394300D01*
X50082215Y-51394300D01*
X50140406Y-51413207D01*
X50175244Y-51459440D01*
X50179297Y-51470576D01*
X50181426Y-51476424D01*
X50185892Y-51493090D01*
X50189410Y-51513041D01*
X50189411Y-51513045D01*
X50197863Y-51527684D01*
X50210583Y-51587532D01*
X50185696Y-51643427D01*
X50132708Y-51674019D01*
X50076364Y-51669497D01*
X50057811Y-51662310D01*
X50057808Y-51662309D01*
X50057807Y-51662309D01*
X50057806Y-51662309D01*
X50049403Y-51662309D01*
X50026735Y-51659679D01*
X50018551Y-51657754D01*
X49989302Y-51661834D01*
X49982456Y-51662309D01*
X49300067Y-51662309D01*
X49241876Y-51643402D01*
X49221060Y-51622966D01*
X49219459Y-51620846D01*
X49219457Y-51620842D01*
X49218995Y-51620421D01*
X49186350Y-51590661D01*
X49184698Y-51589083D01*
X49171700Y-51576085D01*
X49171692Y-51576079D01*
X49169147Y-51574335D01*
X49163776Y-51570080D01*
X49141959Y-51550192D01*
X49141954Y-51550189D01*
X49134114Y-51547152D01*
X49113933Y-51536514D01*
X49106999Y-51531764D01*
X49106998Y-51531763D01*
X49089187Y-51527574D01*
X49078249Y-51525002D01*
X49071702Y-51522974D01*
X49044175Y-51512310D01*
X49044172Y-51512309D01*
X49044171Y-51512309D01*
X49044170Y-51512309D01*
X49035767Y-51512309D01*
X49013099Y-51509679D01*
X49004915Y-51507754D01*
X48975666Y-51511834D01*
X48968820Y-51512309D01*
X48725806Y-51512309D01*
X48667615Y-51493402D01*
X48631651Y-51443902D01*
X48627813Y-51399222D01*
X48630193Y-51382667D01*
X48633442Y-51360068D01*
X48660436Y-51305163D01*
X48661351Y-51304235D01*
X48833689Y-51131897D01*
X48888207Y-51104120D01*
X48903693Y-51102901D01*
X49105347Y-51102901D01*
X49105348Y-51102901D01*
X49163831Y-51091268D01*
X49230152Y-51046953D01*
X49274467Y-50980632D01*
X49286100Y-50922149D01*
X49286100Y-50749000D01*
X49305007Y-50690809D01*
X49354507Y-50654845D01*
X49385100Y-50650000D01*
X49548100Y-50650000D01*
X49606291Y-50668907D01*
G37*
G04 #@! TD.AperFunction*
G04 #@! TA.AperFunction,Conductor*
G36*
X45799656Y-48013567D02*
G01*
X45811469Y-48023656D01*
X45829590Y-48041777D01*
X45857367Y-48096294D01*
X45857579Y-48125867D01*
X45854110Y-48150000D01*
X45854110Y-48150002D01*
X45873567Y-48285337D01*
X45873569Y-48285345D01*
X45930368Y-48409715D01*
X45930369Y-48409716D01*
X45930370Y-48409718D01*
X46019911Y-48513055D01*
X46122202Y-48578792D01*
X46160933Y-48626157D01*
X46164427Y-48687243D01*
X46138683Y-48732080D01*
X45542718Y-49328044D01*
X45537544Y-49332547D01*
X45528033Y-49339731D01*
X45497841Y-49372847D01*
X45496266Y-49374497D01*
X45483277Y-49387487D01*
X45483270Y-49387495D01*
X45481519Y-49390050D01*
X45477270Y-49395413D01*
X45457384Y-49417228D01*
X45457381Y-49417232D01*
X45454345Y-49425070D01*
X45443708Y-49445250D01*
X45438955Y-49452188D01*
X45432195Y-49480932D01*
X45430165Y-49487486D01*
X45419499Y-49515020D01*
X45419499Y-49523426D01*
X45416872Y-49546076D01*
X45414945Y-49554272D01*
X45419025Y-49583520D01*
X45419500Y-49590367D01*
X45419500Y-51396694D01*
X45400593Y-51454885D01*
X45385675Y-51471140D01*
X45295869Y-51574783D01*
X45289551Y-51588617D01*
X45248177Y-51633693D01*
X45188209Y-51645841D01*
X45132554Y-51620421D01*
X45102470Y-51567143D01*
X45100500Y-51547492D01*
X45100500Y-51530252D01*
X45088867Y-51471769D01*
X45067183Y-51439316D01*
X45050500Y-51384320D01*
X45050500Y-48615681D01*
X45067184Y-48560681D01*
X45088867Y-48528231D01*
X45100500Y-48469748D01*
X45100500Y-48288660D01*
X45119407Y-48230469D01*
X45168907Y-48194505D01*
X45199500Y-48189660D01*
X45332526Y-48189660D01*
X45332527Y-48189660D01*
X45463721Y-48151138D01*
X45578749Y-48077215D01*
X45609456Y-48041777D01*
X45620676Y-48028829D01*
X45673071Y-47997233D01*
X45695495Y-47994660D01*
X45741465Y-47994660D01*
X45799656Y-48013567D01*
G37*
G04 #@! TD.AperFunction*
G04 #@! TA.AperFunction,Conductor*
G36*
X50100191Y-47172657D02*
G01*
X50104029Y-47176838D01*
X50140048Y-47218406D01*
X50139096Y-47219230D01*
X50166926Y-47265377D01*
X50169500Y-47287804D01*
X50169500Y-47354387D01*
X50152815Y-47409388D01*
X50142389Y-47424990D01*
X50111134Y-47471766D01*
X50111132Y-47471772D01*
X50099501Y-47530241D01*
X50099500Y-47530253D01*
X50099500Y-48120500D01*
X50080593Y-48178691D01*
X50031093Y-48214655D01*
X50000500Y-48219500D01*
X49899500Y-48219500D01*
X49841309Y-48200593D01*
X49805345Y-48151093D01*
X49800500Y-48120500D01*
X49800500Y-47608536D01*
X49819407Y-47550345D01*
X49824680Y-47543705D01*
X49854130Y-47509718D01*
X49890945Y-47429105D01*
X49910930Y-47385345D01*
X49910932Y-47385337D01*
X49930390Y-47250002D01*
X49930390Y-47242919D01*
X49933444Y-47242919D01*
X49941641Y-47195488D01*
X49985510Y-47152836D01*
X50046071Y-47144115D01*
X50100191Y-47172657D01*
G37*
G04 #@! TD.AperFunction*
G04 #@! TA.AperFunction,Conductor*
G36*
X51570909Y-43976766D02*
G01*
X51606873Y-44026266D01*
X51607763Y-44084561D01*
X51606028Y-44090511D01*
X51602860Y-44114579D01*
X51600514Y-44132401D01*
X51599500Y-44140100D01*
X51599500Y-44559896D01*
X51599501Y-44559907D01*
X51606027Y-44609486D01*
X51606027Y-44609488D01*
X51660436Y-44726166D01*
X51657745Y-44727420D01*
X51671444Y-44772228D01*
X51651524Y-44830080D01*
X51601403Y-44865174D01*
X51572459Y-44869500D01*
X51340267Y-44869500D01*
X51282076Y-44850593D01*
X51257952Y-44825502D01*
X51244554Y-44805451D01*
X51244552Y-44805448D01*
X51229267Y-44795235D01*
X51199999Y-44775678D01*
X51178231Y-44761133D01*
X51100000Y-44745572D01*
X50800000Y-44745572D01*
X50799996Y-44745572D01*
X50719314Y-44761621D01*
X50680686Y-44761621D01*
X50619751Y-44749500D01*
X50619748Y-44749500D01*
X50280252Y-44749500D01*
X50280248Y-44749500D01*
X50219314Y-44761621D01*
X50180686Y-44761621D01*
X50119751Y-44749500D01*
X50119748Y-44749500D01*
X49780252Y-44749500D01*
X49780251Y-44749500D01*
X49780241Y-44749501D01*
X49721772Y-44761132D01*
X49721766Y-44761134D01*
X49655451Y-44805445D01*
X49655445Y-44805451D01*
X49611134Y-44871766D01*
X49611132Y-44871772D01*
X49599501Y-44930241D01*
X49599500Y-44930253D01*
X49599500Y-45669746D01*
X49599501Y-45669758D01*
X49611132Y-45728227D01*
X49611134Y-45728233D01*
X49655445Y-45794548D01*
X49655448Y-45794552D01*
X49686712Y-45815442D01*
X49722276Y-45857772D01*
X49725618Y-45865342D01*
X49732364Y-45887129D01*
X49733909Y-45895395D01*
X49733910Y-45895397D01*
X49733911Y-45895399D01*
X49749457Y-45920507D01*
X49752651Y-45926567D01*
X49764578Y-45953580D01*
X49769764Y-45961150D01*
X49766615Y-45963306D01*
X49786404Y-46002145D01*
X49786615Y-46031721D01*
X49769610Y-46149996D01*
X49769610Y-46150002D01*
X49789067Y-46285337D01*
X49789069Y-46285345D01*
X49845868Y-46409715D01*
X49845869Y-46409716D01*
X49845870Y-46409718D01*
X49935411Y-46513055D01*
X49975905Y-46539078D01*
X50014637Y-46586444D01*
X50018131Y-46647529D01*
X50012437Y-46663488D01*
X49989069Y-46714657D01*
X49989067Y-46714662D01*
X49969610Y-46849997D01*
X49969610Y-46857081D01*
X49966568Y-46857081D01*
X49958327Y-46904570D01*
X49914430Y-46947192D01*
X49853863Y-46955872D01*
X49799762Y-46927295D01*
X49795969Y-46923160D01*
X49764591Y-46886947D01*
X49764590Y-46886946D01*
X49764589Y-46886945D01*
X49649561Y-46813022D01*
X49649558Y-46813021D01*
X49518368Y-46774500D01*
X49518367Y-46774500D01*
X49381633Y-46774500D01*
X49381629Y-46774500D01*
X49327391Y-46790426D01*
X49266230Y-46788678D01*
X49217778Y-46751315D01*
X49200500Y-46695436D01*
X49200500Y-46430253D01*
X49200500Y-46430252D01*
X49188867Y-46371769D01*
X49188866Y-46371767D01*
X49188378Y-46369313D01*
X49188379Y-46330682D01*
X49200499Y-46269756D01*
X49200500Y-46269746D01*
X49200500Y-45930253D01*
X49200498Y-45930241D01*
X49193567Y-45895399D01*
X49188867Y-45871769D01*
X49144552Y-45805448D01*
X49144548Y-45805445D01*
X49141392Y-45802289D01*
X49113615Y-45747772D01*
X49123186Y-45687340D01*
X49166451Y-45644075D01*
X49173517Y-45640818D01*
X49178220Y-45638869D01*
X49178231Y-45638867D01*
X49244552Y-45594552D01*
X49288867Y-45528231D01*
X49304428Y-45450000D01*
X49304428Y-44950000D01*
X49288867Y-44871769D01*
X49244552Y-44805448D01*
X49229267Y-44795235D01*
X49199999Y-44775678D01*
X49178231Y-44761133D01*
X49100000Y-44745572D01*
X48800000Y-44745572D01*
X48799989Y-44745572D01*
X48795161Y-44746047D01*
X48735399Y-44732928D01*
X48694762Y-44687187D01*
X48688772Y-44626295D01*
X48691985Y-44616798D01*
X48691852Y-44616760D01*
X48693970Y-44609491D01*
X48693972Y-44609487D01*
X48700500Y-44559901D01*
X48700499Y-44140100D01*
X48693972Y-44090513D01*
X48693970Y-44090509D01*
X48692237Y-44084559D01*
X48694108Y-44023402D01*
X48731568Y-43975025D01*
X48787283Y-43957859D01*
X51512718Y-43957859D01*
X51570909Y-43976766D01*
G37*
G04 #@! TD.AperFunction*
M02*
